<mxfile host="65bd71144e">
    <diagram id="HIP3nbAZw_EuaXWnEj3U" name="Page-1">
        <mxGraphModel dx="1086" dy="743" grid="1" gridSize="10" guides="1" tooltips="1" connect="1" arrows="1" fold="1" page="1" pageScale="1" pageWidth="850" pageHeight="1100" background="#CC945C" math="0" shadow="0">
            <root>
                <mxCell id="0"/>
                <mxCell id="1" parent="0"/>
                <mxCell id="7" value="http://ics2o.mths.ca" style="swimlane;whiteSpace=wrap;html=1;fillColor=#FFFFFF;" vertex="1" parent="1">
                    <mxGeometry x="40" y="40" width="760" height="480" as="geometry"/>
                </mxCell>
                <mxCell id="8" value="http://ics2o.mths.ca" style="swimlane;whiteSpace=wrap;html=1;fillColor=#f5f5f5;fontColor=#333333;strokeColor=#666666;" vertex="1" parent="1">
                    <mxGeometry x="40" y="40" width="760" height="480" as="geometry"/>
                </mxCell>
                <mxCell id="9" value="" style="rounded=1;whiteSpace=wrap;html=1;fillColor=#f5f5f5;fontColor=#333333;strokeColor=#666666;labelBackgroundColor=#FFFFFF;" vertex="1" parent="8">
                    <mxGeometry x="60" y="180" width="120" height="18" as="geometry"/>
                </mxCell>
                <mxCell id="10" value="" style="rounded=1;whiteSpace=wrap;html=1;fillColor=#f5f5f5;fontColor=#333333;strokeColor=#666666;labelBackgroundColor=#FFFFFF;" vertex="1" parent="8">
                    <mxGeometry x="60" y="240" width="120" height="18" as="geometry"/>
                </mxCell>
                <mxCell id="11" value="Calculate&amp;nbsp;" style="rounded=1;whiteSpace=wrap;html=1;fillColor=#f5f5f5;fontColor=#000000;strokeColor=#666666;labelBackgroundColor=#FFFFFF;" vertex="1" parent="8">
                    <mxGeometry x="40" y="300" width="130" height="30" as="geometry"/>
                </mxCell>
                <mxCell id="12" value="Enter Number" style="text;html=1;align=center;verticalAlign=middle;resizable=0;points=[];autosize=1;strokeColor=none;fillColor=none;" vertex="1" parent="8">
                    <mxGeometry x="60" y="150" width="100" height="30" as="geometry"/>
                </mxCell>
                <mxCell id="13" value="Enter Number" style="text;html=1;align=center;verticalAlign=middle;resizable=0;points=[];autosize=1;strokeColor=none;fillColor=none;" vertex="1" parent="8">
                    <mxGeometry x="60" y="210" width="100" height="30" as="geometry"/>
                </mxCell>
                <mxCell id="14" value="&lt;font style=&quot;font-size: 24px;&quot;&gt;Click the Button&lt;/font&gt;" style="text;html=1;align=center;verticalAlign=middle;resizable=0;points=[];autosize=1;strokeColor=none;fillColor=none;" vertex="1" parent="8">
                    <mxGeometry x="45" y="91" width="185" height="41" as="geometry"/>
                </mxCell>
                <mxCell id="15" value="" style="shape=image;verticalLabelPosition=bottom;labelBackgroundColor=default;verticalAlign=top;aspect=fixed;imageAspect=0;image=data:image/png,iVBORw0KGgoAAAANSUhEUgAAAPAAAADwCAIAAACxN37FAAAgAElEQVR4nOy9ebhlR3EnGJHn3O29V6/2KtUrqaqkktBOlZZCINpmGxCbWGw8LMIs9hgwDbY/3J5vsGEYu8e0PW1owBij9kLTHhhsNEa2sSwJJCRkJCGEJKQSCCG0lFSranvbfXc7GfNHZEZGZp77ShK0uz9/k4JX556Ta8QvlozMkwfvuusuIiIiAAAAIkJE/omI8ldfSEJEYwwXkQzWWr4gImuttZbrR0SuWTIAgDGGC0oNxhi55gvOY63lOvmaq5WGpP+cOPMyyVrLDUkHjDF8R4+3KIrRaFRbQ9KivsPD1BUiIneJm9OpKAo9Fk1brlCKMN0SAspIuUW51rUlfEyqAk9PPQQ9uoS8epjJWHggEDNUelsURVIwZxM/qqpKGpVBCT2LotADlLaYAiUjMq903E+5I6UEE/yT+y1M1YQQJumymgRaEoSUCZUF9Dn1teQs022BlyYHKFHkbpNKSf/laVEUCXSkSFVVGnnCKp0TAEajkdQvTSR1JnTLaZJwShcXBZFnk+uiKIwxonpq29XQ1CSSqpgaSUHIBCnpdpIt16RCUqFnVVXC4nz4pdadEDMY6tCsH9Uqck0OHkBeSaLMpAZUOj5XgeDRrOvR2XRzeaMsPCL3uvN5zzWAkk4m7SYwEgbk2fQjLTNJ/3VPQNFZky4pmCiFp6KSeEQC90SGpZJatur7OZs0NDWpE7YmBROo5CDUA0+slqZSyTpDUyGRj6TScehM+ofeoiWk5yTWR8YM3jwld5LmtG5Oal5G9iCGhdY0SVlhcG4NE98gkQ2BFNfA6kRXolWaFkvBkJCFu1eLG65ckEGx+5ETSt/JGWGtHY1GrJ61TuEmarkmxKlVBzm7mRSa/rkcJhe5TKJ3CGvZXZal5kipRVMe1GrWp45p7TBAzLNEl4iXqR1lyNwYSTmf2ABpSEmXpMUcr9IuO2SSh6mvJwa6IRmXBrH0OdEWugYiGo1GwlSx75qwAnGGteBVE1k8lkSucm2qqcFA1NhKXPlca5RlqRtKhiOPNE6ISErlSSivOVWrO7jafLIh+i7pSSLY5TJWIEm1T7UK1xzSdWpAy/D0hYxNkKQ5lMt0ckffzL20XDcza8c5l+MIl1uwBEa1PKB4+qJ5yT2XUjlc9CiSYSY5c3JJ90i5lMtrInkqYpNQMqEqKGrnI036o0MFSSdzZZRDPKGqVnxJl2pEShOxlklPRXFKyhEG3kxoDcQXMqvIh5H3TUOf1FQvKZjP/ROTrYeWmDY9/ATHcp3Ur/uzDH20d5GPbtyoEzcGMjGQbLpX2kMQjSs59WAFbXIzmcVKhmREfEcUNirvnEMW+UA0ucDPKUlZMIjZilkwQKoCxZcyqbSWoBDrLT1soZFuWNejZVcuhsOhrlyqYgYn4TOdTTikC4I3x3n/NcK0417bW/aSE/2kf4qCTwyO7uE4uMtN4xPEKAEFFPajoG5uxNXqwBbEGBJiglINOdEkCiaE1epWHNFa5aKb1nODsizlUT5/WGY2L/TPIZvEkfKCCYVLoV0yJMjUTN4DzQntTukYgkQ6IUsYh88SrSBd1/KW05dUSrIlnRQ3I8GK9FacV12tdglylqBKUjCpXHdDfvIYta3QZcdphFpqSwd0BulS3jf+K3xPiAl1Ng39goN0SWsKuZ9zWfdcsymZupBXZ2xbRHGg9/vzpPmoxbVMhpSrhPxnMrDaNmqbzwsmxRPWyt/aChNhrTX9eUFQ4goxJvKnywwBxuMpyZD/TNabxP7mjY4jEcU6GFQ8AWIg6rHUmtDkOh9+IrFJQR2MqyVCrvWgDksJNWAM35NeJTQhojLRJeN4k3RCasmdbFDzcfTLK6icV1SqLieuZobWAajsIGcWgc77qQ26dDWZkoM38dpScw1iInQlSVltlIWa4wLJEHMOlWmCTG4xXn8VqyJtaRFiiyzYothjTkQ3kcBcKWjqyX39U+RQmFIrhDkeEmZZv1KbzGEgkwpNN7nQjUpVfLPUD6TeXEGOk+n8Z5J0e4mCQURt5cVbEtrVSn/CCT3hrXUJJMSWQ18GmDTBviAo6YcMFrqIxhyoKaDuasK82kSxqyD39diTbmuLnMiD3BdEaj2SaA1QM1RrrUT6dOVCSUkJJWuXHbgg+xjaijK/kuiHljSpQc9chZVChGRNo8xpJwVyzi2TpEnJKTDVlaNacAHFwoRnApScQJKSOY3uv9xJrLD8TVQ4xI6prmGc2sjZJncSVSRFdBBGqtX6IuFFPvCE2bmo56WS2acgT1M4bzHBWd6NnCYJZWoLJm3x1Fb3LVl/qLUhSU+Sp5EPrb2OREDHVSfDrgW0FiZdc7KQpqUf1DYUiKUTxi9ui2Dk5MtDIjCeGfovQ5Cn3rXD18DSy3u1wTj03mECaBjj1NaqQG4i4Xou2FoXaq1c6zAklplUuGkcnhKCiAWQqR6owJwWJC2xurdCbS1pQkxpSB4lpCNlAEvZTUbe2a0V8SSR0qwJk5L8g8FALHLCxUR5QyYMiCiLT7ZujVff5KAbeM7lnRdBSoSQ8+vQitYQg8FASxoouAgbhAGaDlJKrz4KD8atwkj92sXEbNYhLoF01VqrF+qEicJfoTCqbUZaTqRajb+cobo2aYtr0MU1bZNsSSUCj4RrXIkEp0k5kLlek+GUvMahR5t0d9y1JkQ+YEmNRiNBM9U5cwl1xrVYqzA0UMC7gLXFxWVPnJlcVBJNBrGwJexMYnMa1uPqz5datBjkjeIYT0MPQYNJK7ykwwCgoZ8sTCQjrfX7daO6qzJ8ij3JvAOSmd3oRB3wNgFNDSlVu4oplRtjSt37vOtJyuF1woKaE5iFpXNOn7BRaXpcZ7TWqe2e9mXz2pJq9Vxzmd4mak9ro5ypOV51/Zq1tQKfjygXHo1+uaP9kIRKeW26oQQ3OZEF2bkwJ+PS4EvGpStPoLUMxuQRy0bJi3aJHNi6DV/LA4syM0p+UmizzVmogq+5FqkNxtVGFbHOyZH8nDlZ6pPYlowu8dKSUSeb0TTt9EBIRSphzIabcfzWo0ZvVcXr0KNjmz5urWEc1xNxTRzLXFxldJosuiptDWCMu7/MSKGOZaQ8b1AL5rWYzskLXmBK6bHmWeJ6JhdJXUlmrZC0LZZZoG4I6zzpPACH3j/TTWO2dKf7ID+lfvKeRqKh8/4nAcTEf6V4GVmGnMSP8oYkJTk1RKSVfIBCGR0YFr24vLrJ7+d5ZCy1goGxzyNDy6mHfk6iga77rBW21segAgnJrh5hBMZbMPIBluPczXEp0ZGQIT6hjs6vx7OMEQHlYoq2GBdqqO257oNmmGTQ6B/HP8mppVQXTKqShqxa0E4uEk2vm8PYN4M6cpHassJFakU6kW09zGSwtf1ZRv/pnvBTvXtJWtTxHHEyNXb1a1QJmvXoNOWTzifjkjulzCITXI5LOaAliRTqsY1Go2632+12+/3+cDgct7hQ24dahZGMX+evVUhJzcvcBEXTWpTnBIUxgNbZEkCMS7VUZT9Ei4TOn8TvckAn1SbSBdmGIZ0hoQnEjmJOk9r+cydbrdakT6B2lufKzqodAai2qeXDTybi0lxYEtMY0rVI1mWgzJ0Q0nPk5OjRo4cOHVpaWrLWHj58eGFhYTAYaGOdkyxRLbmA5phIrH/eK91crpBqVxBqV7w01Wqho6/HOUgaLhQv5SxDW1CyjT6+BnVMSe7Ugk/qqR1IwnFNNwFiMtjaDnMyxpRl2W63N2zY0G63W63W+vXrN27cWJalVFXrLucIzCdRTEy9qGmtxTvuuCNnc87jXEQ0veSCPby5ubm9e/daa5944okf/OAHe/fuXblyJY+NA0aaarVEzO/XZs5v6nqW+bn8xTJN5N3LO99sNjlYqfNgFq9kUc87lvcqydBqtRqNRpJhXOakz3nmnHTjKjx+/Hg+H82hoh/1+33OMDs7e/DgwZmZmW3btrXb7ZNOOumUU07RjjKOeQNVwI3xvmJpNzEpYaVQ80lLjP6Zq1VUaoMHsG/fvm63++CDD37ta1/buHFjp9PpdDpHjhwZNzevTctb5/8xi4sRn56ehmU9N0QcDAZzc3PL5BnXRFmWXL+uDeqEQaCQP4VM0k4o0sePHz969OgyM5lxI+W/J5988plnnjkxMXHvvfcS0fnnn79///4zzjhj3bp1Gj+6lFyLrqwV2kS/hAB7bVxMl9HWBzI/AREXFhYOHjx46NCh66+/vt/vn3TSSbOzs8ePH+c6k6n9v8pERJOTk41GIzcySep2u51O5xk0MTU1pZdFEsUPdaiFZQGdd1Jjne+MRqNer8ce8DNLBw8efOKJJ6y155xzzqmnnvrAAw9MTEwQ0cLCwrZt2zhPslwv7mvuj+Xr4XIdrRglmik3VclTuTbGLC4uHjp06IEHHrj++utXrVo1GAx6vR5mgad/3aksS0az3MkJiIjdbrd2JX/5xM5McsxKolPyIk+3lbw4q+dnXAknnhoCwEMPPfT9739/165dU1NTd9xxx8UXX1xV1emnn47KodXGfDAY8IX4GFqGMXODSx1mX8bULgNr1s2HDx++++67v/71r69cuXJ+fj7X9P/qExF1Op2chgmqRqOReJZPKyHi8ko9t93L92RckcT6d7vdpaWlnxY3i6LodDp33XXX+vXrn/vc5373u9/duXMnAJxxxhlCuiRcJj3R14mfLGWj3Xb5aPObOjFqh8PhkSNHvve971177bWsm+uLkAVbwU/m3f5LJekkuuu013wf5QEBtFotYyuwFT8nAABHCEJAQL6/ND9P8SuVT6lDRJ2JCRgNCbm5WF+g+z9zi/JHIYP7P3FeVTCUQCSfwSIeO3yIhkN4ZoBGBFMgmqR4s9k8evToTTfddOmll951111FUbRarW3btukXAtGnuL4a0yR3ENEtfWOcdI3L9hYB4NChQwcPHvzCF75wyimn1FlSgtEQRn1atQnWzlCrg8Y703V1Py2yeRZR+E2KuwykgDyMC2Z1RVn8JS3XLV8IAWGq0wYBLj91PSFB82hkcanXAtGLAJRVjekvAjAGV3Ta5KuVCgEApR2Q9tHB3oFWFVDlMCDZ8Qx9Gf5pjFnoLrVXn2IQFZ0jgnvhiB4iAhAQQDXoj44fHhzaYwdD02hBvIy/tLT0rW9965JLLrnzzjubzebq1atXrlyZh+okafiKkpY8bvtofnJSGGvdnDdxnY8ePToYDD75yU+edNJJKWMAoBrBqEdnP7/YeqZZsapoNMCjWWrxVeeIUiRWP7gHNSAV3HAm8r9J+JjU6tvUajTuW9JG0mcCxzkAaDfKRmHybDFVYb43aIUGwYNP80lV7XtORJ1mozAIRGiMx6HPxBrVhG4iELon/NsLVhAG0ihH1RWf3xF4NNed8T89TCkWKMWamHdAZKvRqLc0WOou7n98/offGx7Zb5ptUHhdWlq69957t23b9thjj7VarV27diXzaY1X7THzUz07ZOfZHdbISNXhZF1MkTsC/Wg0Wlpauvnmm8uybDabqfs4WIJN28tLLmuuXt+YnGy2J0yjgYBgAgcD6SJIe7QhQORIUUZIpSECbinOAogIRI6ZsTpBkCca+eQNry9JpPks9XMOg9gpjVfGuifK4AMMKttgCxbTydGDtKYlJC9sBKWBVlGEzksfgkEgrZl9taG/GKSLVC4KwNFABwJAgzA3GG1cTwjSES3gMZuAWIjAE4rrr4bDYa/bW5ifXL12esv2uUcfPPbdm5FQVHVRFE8++eTMzMw999yzdevW/fv3z8zM6NUuDVmNZgFq4vGX+VYyWHbjhCREnJubW1xc/OIXv3juueemaO7N47k/037eyzrTq5tT02Vnomg2jSmEmFoxa5c10hkeeTGlKGJcjPCgTIjUdaSkURdQ4Ej0Iri2jLDZoTs047rYLkyRVehJ6rhOADCyTdCVK82Z9ETTGaBdslYOaEMNa//XmyXul4d4Ru1wx7efUQ8QoCJojagNgEoq0jEqFeS75H44ObO2GvQHS93e/NzisSPNzkRz1dpDN/092ArQYazZbN533307d+7kWN7GjRtN3Ulr49wPvdoCAGW73Q69zCaFyTJM8nQ4HN55550zMzOyIcSlQdecc+nkC17TWb22OTVdtjumbJii0PKcaJqESiD3cywqfrAbiuAYGSrzDkei0nRJaU0YBqBkPRprUKrCKdHHJWKziARQdxK9dPUtlSXmA9Gjy9oFRCjRNAyIAxUhUqHf3+TWyAQBDU2kf4ML7wbo5RYBoDuiZuGfEQ/EaxXS1sSpgWB5NMGJqNVudCaaE5PNiclGp1OUJb74dQeu/RKWzcB4xNnZ2T179uzYsWNhYWHNmjXJZiaIw8pabSfvyEUv7dTOHPW11u1LS0uDweCb3/zm9PR0hGZbwfT6yZ+5fGL9Sa0VK4tmy/jzIV3AIEiz1okQg4EQUiOnEzmssK3zTEUkdvIIkyKRJ0yUeBfhoq6tOg8pTKgaJhRIHBKhmwUYuaFQJNGY9CxuFxGBCsy2ZOQKM1QgGta5SrX5fGN6wqtkjahPaEV4vFHy8kFieVRFXqRjOw2IBhGbraIsy2arbDSMKYBg8LyXHfnna0zbrdQURfHoo4+edtppjzzyyMTERKfTSTZ4iBORzOL0bnuGtbE+VVkSKdH74uVmv98/ePDgk08+yfsKArm7xzr/0xsnNm5uTa8qOx1TNhCACCJUaMYAAHE0j8lE8hQwyg/y2LMs9j6QKaBLU+KuCgviOmOOpnkB0f3PgT70sDQAkIYic1wOLHj9qqGQJvXAIbJENwWk+DnFjSqKMgLErkY0iBoe2wuwAD3rWKJzBWUTj1h0VUBzRhBjikarPbFy9fT6jSvWbVh92lmtk7aRjXZDWGsfffTRpaWlXq8nr1GTSqFChW8/ZJdKXs+rdS1y35qrYFEYDof79+9PQ/3VqNi2c2L7Oc0V02WrjVhAoo2SlDoVkknNBGNqeuUTfkCsbp3DDSIkUXE1y9SgV/1I2vOlfPMkPTBIpXcE6zU7ACAMLRERhAmcUq8kdjxpkwDAIBjMKvTUGUMfGRzFzm1cjRszW0dSU2UygF0b+emO2In2kIpSGxf3RlstxLLZbK9YOTXo97sLq8+/+MD1X8bOFOfkPW0A0Ol02u325ORkMisjdfqFHx+g2lLBGcIuPl2+dt8TKJmw1g4Gg0cffXRiYiJqdbjUPPvC5vTqstVBYzzC0KnW5fxFIYUmUwZHAIg8ZimiavE4rvP83UhdCCMy3V7RRP86pYcoUx3BDzWNitPFYMRQFIbWwdZ7Qj7sFTtgkIkSOzNO0ZCMDZ2R8DIQoOyHp38lMItHQMwe0eAIOCIaat1fq6IzmpP0JKa5lnMEBCwarVZ7xfTEqtUrNm15cnKaqgq83lxcXGy32wcPHly9enW/39cxDXlVhxGYf/tCvI6SHQbtQFP2GjNmO5P4enZ2Nj3jemmuffr5jVYbeQromKbYkYzZO14cpgIIOKsjo9A9aDjvJ0oLmfvs+6+EAwHIgF8P44qUl69adg5Orp0KRJmJkKogsURDSwQgUb8woNxYuZG7xgrjBiVR5JQY3gtJgOxukHi63qD44KDL5HnBFBMLsWQjIaMw/IRvolPIG4z62J6zQYDs+hhTNNsTnanp9vSqzsnbFx/+PpbOZR2NRhwIlqMjkuCd3NGfWQGPUv7r4sfJjJDUywthDHFM2xiT7kkggonpxvQqUzY8u52aC1HShJGiDkOIWdwGzeiYnyhqKFI4gYqOgoL7ZDlO6KtKUb5eEPue3ogzh5qFqTHCPjfntASj4Guo7mRjQZT5lFOaJRiVOQhucCNyLyeebXinwrcVg8wjki2Gu+oTjVSpiAFhQSVffw0KGlDTHZwwq1YAsCgbjXanNTnZnF69YK1uq9/vs1+R7MHipF3qZHbo+QPl7OxsbVRObiavwaA6bifxcgDItFcUjRY6t8YxLrXVoQ19EcHLGYQMLhG4g9YKXEN5JnZeb77RHqvibwKNVIRcMCXQxEc2tL0CIr2WQQAwdGJHCfhUMWXFFAwKNw9wVqNO9ddYLuXoo4ov1pgsDnf6sXrxA+jbGrchTxTRXPDq1HMuaEwBr6gAjSkajbLZLtttoOiVvMFg0Gq1JiYmeHOp9HbcjDAJTiNiyZv6JN9Tv8jfMuLW0RilnknRLfIX5SZXF//2wc5APl8bEzCICMV1pahJ57Vucqba8ihBr7dTjyd0IlgbWUaRnERivjkPjIisn06Jlk66l1biFV0RuxkEYBQhJDfG8uNsEzp/Q2tkfmxi58yD142/V/HkNWojzH8ADBo0Bo0hW1FVFWUDEMlacNotVJtimlhxk7PFiKYoirJUXptLg8Eg+bpDfoiPHB/ASS8rRgfN5Bdyrb0Z/Wh51a4Q4qhdl9t1VjSh4o3Wo/5+cBA8uJVRBVZIpFa0QRdSubRfIre8jGidFvjuqudQnV8R93onyU8AI4oMQs5jTwFZpHDjKQ3EOyYiwOpmvKL1WhYddJRoaWOQ0kF3yRIMvAnSsiY7BkxZLhx5ct/939v/4O6Fo4dH/X5rcsXEqtWbzz5/07POm163vhoNvW+mjaeqi6nhlvQNIiu+yMjzVk3yXyUEtZ6iI8jJW+UMRX6huOz3+6DgD1lCta1JvI6qqkajUd0r3OinbDWWh+qGqg2pdvv4d5291K2B5jVGljsTH0QXr9C+DQTQSJ26b9Jvvi4MFsqBHSekQ+sB7zAd5UwdkNAXMOhtN4iLrpeBFA1FtrWcguxJGsODhHieMIujQNakFKKphoM7v/KFm6/8o2M/vH/ylFOLZhPRkK2q4WD28Uc3nL3jRe/5zQte+Yay2SSyKfVcnaQDJohaZYXE2/mttcPhkLfN6fNjBZ/J63yoTs+pcTmSrPlTRByNRvyFh5oipBHi0YZjBDdAFqPM/kbSp4xDWu94dR0BQAmMXykQlR+BzM/KxpgRBy9xNli7y7oft83jtAAjHwh3nItrlRtJ7wEgODOB4JGEq9v5EOVNuchsaaJREDEQyzCwVEUqRqlyNKN+76t/8Nvf/fwfrznnwvU7diW0mViz3lajL//62370rW/8z7//6bLZJEsZlDz7ueHgKqYKlBf49GEJ+q1qecG70WiIx6s9BcydGJ1JJ30zqSVOvscenSh+hLLKlHDFqyFvLhUdYqpk0q/3fGKUi6KC3JcIDuzVRU1kAqTyE0LBvqxDb5qZHLBdqC564B4p++Fza7SXxkPMEUSVj3Attt398l46kudgjanVwwKAEH6GXpVT2v2DCP/4Hz9831f/Zt35uwwfdWltb/bY7BOP9Odnid3coty4Y9ePbrr2H//oI2hMmLCo/obAiHKe6u1bDDY+RUkHodm74BjfcDgcDocDn/r9fvg0sqdN5HuIoIjjoe/XYzriEomRD940AlK0nSis/AGE8FmsaOMxg5/JRKbbCVLsCKrJDzl6Oc1JmvNOYyVODkU+Q2n8rnyvoTFuHwAqgMrv4EGpQbExmoxpVYhknFufnA7BMHU9C7EPAj3OaPIAer5YzyLxvnrWWr2bWiVTlj+85evf/PNPbPGKuRr0e8ePPu8d/3bj9jP3PbD7rv/3r4pWu2y1AWDFppNvvvKPznvJK8+49IXWn+EbrIdjPSHH8fyEKE/JPF4OjNUxDTlnTEfbXNgu30CNahklWWmUn3J4WV2PEkrWLuyGeAWhoyx6B4SxUsMMjy2/hBBJRTCj8QQqaERugFKD6DoS7wtVyY2xRN+HZdOw8rjTmVXIT1CovHkA3oQk7asYrFNrJGRJaBLsip9IBs8utosJTxCILNLAZoT2dVpbXfdHHzn53J18245GRdn4wHV3r1i3jira+crXX/ILb//Sb/3K/OGDRaMJABvPPO9bX/zz0y6+FE2RwtULdj1mfLLWyjFLFH9JAvwEsaoqPrGIssVw5L1QnFixl2VZFEXpU9OnVqvVbrc7PvEpOGO3TQfVh7EPkT+Xaxd/R2ecKHgYOujGvyM/BiMAxkBCTVf3KHFRwgbK4LNknTXoQmkQnAdmD2gGjWy96kEXD4mekYtjARAY5E0ivisBlGmwIhHUKOwEmN6CuuShjQi9ShXUGQDAFIce+uGjd99u/Erewfvvfv3vfXJy9dpRf1CNhsP+YM3mLZf9xoeP//j7XL7R7tx99RcP73lEAUOsmDSxnErg6Vmv1+MtSvy33++zRzEcDkejES+78Av2DMtWq8UobTQa6abp5VPSNiidnfdtfLcVdFgTK90YlgDFJ6VEXYeeBAXIKh/TZlNtGwdZIfO2oYbwBAANpdxQiZr3d7lbbi4YCodQegyyxD1GcJFAJQ4JWcllYCOje4tpxmgOGacIWjS0UDn6hkqlsDG4/8H7V63b4HLbas227Seff4GtKiG0HY1mzj5/5sJ/Iz7GynUbHr/vLgyADvbUT5NO4N/rfZ3JPlAJ2LH+1Zo3pERpS2zPj6rm49scttPHIaeJ+D0PGOvGiXENZFdMVi5KjcWMdvNoRxykAGWrpkGhKSEAWTiINbpCMoBbRkF9K+RUy99DqwQvjajUUAE9r/WGPfGM0g0tWOu7qe4gEcmrW9lxBR5RLE486L51Vdd4MgBozEO3fqOzZj3/HPaWznn564uyCRR8f0t2YnrlxjPOfvj2m01ZAkBzxcrDex6uqU467ucEY/JEX9hJpnaeFCgXCT4BoLTq6G++qA/GZT0YBce/JrdXqzU7zFFf1Sib4E1omCnFGWZmUZW+qSQAQaIUU4S7hoLXTZC67gjgFqKDoXbA8zjgnlhya7jSCWdrKLW5EcoRANweURYPD9nQYgruUB6dsUIA52J7szAGLqj+GVqwIkGxGyN9+/E3r2+tXM0/h4sL60870xSFHY1E1bNRWbXp5GowaHQmAKBstQ8/9vBgqVs2Bfqh3aAVyB/HECeKP9kmczkNPz3Zs/5sfEF89DIs+gC1/E227TL1wE8AACAASURBVOmb+pOPmtqK6qzZsk6nV5GvoC2yrzzyiymOTgTdKavslGHSX2LAVqaUwut4qhQhf4EmMvPeNXJuAAHwuqAehqAqizbE6h+yIx08TF0tka8c/Y3Ih+KbsTap0bkYaGgBBhRYE0x0XOLQnkfkzAk7HLTSo8BYBmFy9Zpq2OdbpijmDx2ohoOseXFutICngueWr8uy8Em0de70JmuH7JNEZ4GmwxvzoVhQQoM1qjK5TjuNgMFUSwjH5xQ/CwEI/TYG8J40ixCqqqLZZdqw5zlfatdVuRDybocmggMKGTGUuv8BNogIvAlCmRZvRoRaQdEGMwIRxsgDlwDBgOzBE08ECNzrK4nj43fAAfhSiRutTIMzm31rvWZ2rxKD3/4hNdsqU1Ux3seEVE336JNWvYriglHcnjch9TU6YmEeRwbvRuaiqvdyIGKpv5smnzY74clrEjEZPylUYeTUH5Sdm7osgpJewAR0Sg8HySb96mjudypTEDSQCpahu5BmYtQSUimRA38zVEfo6cjbNnQd5Jz4moADyh/S64IhnwdxRn/x9pNZH8nSuqdMqgd1doQR0YC8moBoLSYMH2HY60KaloOEFKxGQy/fbDFCHDMYbqjX0Lwnudvt6teuMU5Qd6yjuBXu5CQ33njppK67mPxdZmhSU/rSqtLIWocpnIGe+UXW2vGKEnpIG4mtSQJ4Hi0xdD2ZdVkCKlgj1rxzG418xNwL8kBxRsFJ0mEwasA+EwZXmtJ3XMkvOQXPIqpBudGq4QhDgAjQj7YgC8Ejv27ZRDpfqpdAHDvvhLmwkLJfUk1eNZEEi3Mc62wQ62bRsOnXm5dRuokVONHZHTJvS5fz6uScVHA38Tlznzv5EWlPvWCcBToCl6OXZ70qofAbgOdqDqZY3wsCS1RR3aCCKk8jha5vXj3H/CVHXRa6cNSCGiGI7fZqFT1eUHnSatt+qB+Jt22oe6p79dEOnYKxjAKRdVLg1h9YL0u4XrbLjMUB5dM2qFOvNYEsANArhaQWXE8wLp+5rkbfU+dEar9Rnou+lFvhJJdgtjPdDMogQ+xg1Fwls9Gg07ULM84wQ4FoWEuS83PSoSIAwKiCrK/ctoAxW8FHAHJRzaRoEJ9kLBQK6mdeasiRI/JIUIqiRy4RDEimvl4WlNsdmaE6wIm+SQMvWUYK1UWSyPkTHRFq8oCmeBUw1Bt/VJf/auiXshqevISSzyiTaz6JOu+SG3EUagjg8yugWhcHF0R8hKReWZf2ATsn+AmhIAtYafWjPZAAlboYFwIUEhv03dX+OgAgQSVRiATNQdf7bvnb6G/XOFQ6R0onP/ZQIrikUjxxjlIpIxiQdM89DHouI0R+AoSKAGWvKOqC4hFFVi0e6JhERLz+t2LFimR5RGtPcSWSdw2ttaXE/HSBNHYRP5LpZL0bjTKeMMGpj42Ox5+3puPGLTiDwBhv5aJKUvUpCss3T/lkEqI9oqA3xQXvlRBGYz7opa/DsiKHyRCBgF+H10T1IBOHAYMcASbt+44JsGqOockUP1iAkY2dGPCGNA6McDeK+LgVcK5DoEqoh3QeMGWRlPKbqty4lvcAiKiqqtqp3TgPQgedIy2rdbi+Ixda2ydHMEVjAs8/2eysUSaeW5jzeG9LW9w6kY5DAEHZSLlUBEj+ap9bcRXVuUj+r5tv6RdJAYLWJEAGR03A24FMgSlsFWGSGK/nlZBHHMKwwoM6cqFNQcCRQIxSEUkG1QtoBu+bcGiwXm2UrWZyBwPZ41Z0DUStFavQGJHMoHcobCxbBtSsd3nPxrg8OiyRfI6j1PAXz1j70zpDcnrp2PbCvzEmEP0LFc4zRbWx3ssuyewEtVYK/jV5UFFE2jojEKny6Dd61Q4Jl0r3M/RU8S2Ur/jUUG9yfUblOlKCbCcNhRehTEO7RkT7hvcH/G/xe6J5gCgtf4KHeB5e2/MWbR3bZrPMefwO4aQrBB0AspY3ZqAxthqpNgNh+4vzchSBHY1WzZxcNpoqjyxHJiqqXpBOFD1T4wWA+O0VTL6xUlsg19YnbtWxjGTbWIjLehXnXeHwmgiRYlOtM+3nZz5TbIPrnBTfSCRjMiXSKoDL6nPqvLFH9dzVNwxHm+r2pSSJAqF4/lCI90XBD406RiFmh8EoBI0gIqgpEELirmA48oBvD52m8OMKbQY0x94YAMBZl7/x4I9+ULZaANCcXHFkzyPWjoQazEw0cHz/E2XTvfdUjYbTG2ca7TZZCyh89wTUbcS8TVLtjDBJWvNKqvlMdx7/q4XveEy7eFOsJLS1E1K7WwJdxMxFiTyBcKkfor+n76IuHLwDRqnnqXcdJV7Fu97YW0Tlqmj3Vm3mijpZS44kFINqaArNlHhbY5QXAFD8SHx6t46qSB6QMwzQiCmkPz4Ut4kAZGH7pS/qz7vPBTU6Ew/deiO/yB4cIcRRf3jk8UfE4R4tddfMnMLvtsTuPMc9vPpiSzYmGKfnfPpcxeQ+vwfIfyWFb33rhMt+x5eBLq+b50RX1MmmXIrinpLBL3FzO4ioS8KyoEq0eqvZ/xRUfeAkKUImtbvmC62LpZzqDv+thC/6/RENllr5ByiM2qGfZQmvkSq1HMdmQrQn6j4phel27ocBW+DDboI5VJYv67rcRSBbnXL+hcf37plctxEATNn40a03zR7Yu3pmC5H7jowx5uAjP9r73dunZk7hssf27tm6c5c7Sg48PAj8SULSolpt0U37O8n71xK64L/iCXtBDvWUHH0bF6bOk2hu+VhqTR7BTFKrIEbIFnuD2Vqffya+nzKWkRZ2PmE0+ZQeB/chqlicVZcr7ik/iE9HQqgsBbxBWqOqO3kBhtVTiKqFGn0BVngJgZLNAcrMOafMb4xR1stnYSkdWQKIpEJRyPdNj9Ena+3M2ec1lBt90hnnfP1P/+PP/94nirIgS2hMNRx866+ubK5c5aJmo9Gpz/2ZDdtO53cNfeCPguUNXKNg/iKykXxxONGVes6ml74TV6Lkc8TSsY4Ht0wt684wkOdq75sALor8a68wyphW5/+Jp0M1pxuESFcGXIzfFfTX0eFa8gaUlILomuFFYccORg6uVs9xwNjdLvyqtsyCA12CjxnIICjzkxA/J5V2orGESL2W84r8umBOWgR/RAamz32PykbrFz79ha/85jvXnLUDAJoTkw/c8NUvV6Ofedt7mp3JQXfx21/+/Pev+7uJtW7P9NwTj7zqQ380sXJ1NRr6mkLFbgHHN1vPRHBhOz3VI7/QLT+TeZ12lctx25prPW5J4z8Lq4wMKlRo/UES0gMQ9SIqJFcmgez8K7zOFJRZpvFUj8CfIxQLAwYMGQ/AWAq99vM/K99aEEzfZNA8fl1BQ70IMu33U8dvGrBvIWs5EUzdQl78KnHszPluh2NHmJBy2IYij9gljiZFc15NcwSwtjr3Ja/+1vm7evOzZbsDAJPrNj76nW/d/YX/3JxeMZybX3XG2YLmUb83temUC1/9C1WlEaUEzA1NftSvtOsVk/x+oDAImaPraOlb+yhJPsE3P0o+bBFRQjqcSaEsskbGHrxLUBvhB5AZmfdWc69c4rZ5d/wO1cgkO0w5DwdBvQGnhE6kju0pgdVTmhgC+jLpJ3oRUISQ7vh4EFGgZliRUh5EOClK/oSBuL5468jDGmk2BkmF2BeAek3pJs7UnJx6y3/63Kcue/bEpm3NqRUA0OhMbNixKwlKDpe6hx+8/3due7g9tcI6QHs9FAekxZOuedXUuxzoX0UBr3f5aXL0cxJi5mujX9Xi3Lx5XxL6jXmcpD15vzzpUkS6GinUx8ehz+9/UnBck1LCY3XP//HOZPrUhTAw3jkg6tcVKaBGiEDlBiIC5Wxo95hUNhe98fLnk/EaPogBL1C6bPHbN6TnCYo2jgrxDXFNRW79YwIYikOFSQVqcH52EdFNDYqq0bptZ/z61+8/eeeuA9/7Tn9hrhoOyVoAImur4bC/MLf/e99Zc8q2D9+xZ80p25R6Fm2KAgr0RxjXLPcJuVSSDf6ckp9JNXxdSrBCOxi1zoa+w557bceS35EuFSsabKNWRVhbyv8OKpH8HEs3iTpvUMw8nBpHUTSZLqgMU/gXEbXrnI9NqOb/JZE/o0VNNaCpq4L0Kj4vjRCQvKalfKFY7vVEFQBgYCXuGJmGzLXIKE0xMwiq0WDN5q1XfOwvn//Wd9977dUHH/rBsT2PjJYWm1PTKzedPHP2+ee86BWnXfS8otGwo1FMHgFwrOUgjDRJonpz74IUeSkmtfYdwgb/pEACaFHv/JNfkqkL24m7nvc2Uo5ePaO4J0GKk1LoJd0RWyxX5J9FETQKpPM1BC2pqnXfy0vZHGGViKjyalQ4My5mB8HyE7oXbP2ETrsJUdc9I7NukO+nKFKMn8r+EBXpAAtgQU894zHrfmYzFoLg5YNnp7UVAp560fO2P+f5S/Nz/fk5stYURXtyRWd6mizZqrL8dkiqljD0NOJwjRWWXuU+NCLKS9k6VCdAFZSXyae5tTsSjTMO+JF/O8vG3/f0x/06PqdC6IDFk56w4ZFiUAtRItLE69y6OtCGWo1EVt18NJBAnFafpVbuQjtEhGBJNST8TrWblzSljIJwZ1jUShP1V+bE/ggc1CM9NZT1jSw4TUNhQqQfRY5IpMjTTgMAaq8ByFYjW0Gz3Wl1JtH3tBoOI3sSU8O7Z2pwaqBENtd8ifaVa3m5EOIQnpw+w8f6l7JpblykelzSnrvcs/OHiSz42VSq+TwqPL6CDnEgidfL5LGPbGicK/1T31ny/QwNY3iE6NVzUqNzjHyYFwBtjSeSXzisiH1A/mKSr5J0tDea2KpoknPFUuqnWlN666bRqn2ASlEqUc/Ri8RQN6f3kotpWVUdAZEVgtYsa4XeEaptt54S4CcQYPv9ZKxVVcnZRvo43US96m8AyUkGbnaXuxYQuymQeSPkXzqcmJjQ2/wAkYa90dFD0vd6neQHLLeDnsAoP3qw+xNYxGZToI6vL5udyt+w11Hz2mA6Y0XpiWCE5HXuVBvXJaeT2EE06O/oib4vHwywnhTmnn4qN8qFcn1UlgtIQnUEik66e0G2qcbP8VkIND0x7lRUL42hhS6aWnsAsrYaDpYOH5C3yjnxZmhWsvmrKxKWkPsStOBDZ4qiKPlEXu0iu/BHrH3JH4PAiGcNv2nTpvn5+fXr14f+d1YuPfT9qbN2oriJtY4EBZPpfmXeaGrIQiQL44eSI6emx1SIqgTNZbJSoVLZUeBux8OIrbTGqihadM6BH6xob9WoBNv8FNln028SCAeC9fJuBPmfYc6LQ88y9HWh1AqoXXdmM+SkRN9hTG6oiuLsWa6YqD6+J/wja201GizOLzx0r2lPSdaqqlatWrVy5UqOvKF/OSX5VoQO5HlKktRQNpvNPFP+UwAtVRDRjh07PvrRj5522mkhZ3tq/vq/WvOi15gVK/MR8wCFWuKLytgVxknmgIlJVZVRKEFZQywAjpoJI7DAKF7oyykBBgJEG++IDyhJ2lLF+HER3Crf10h8VeEYCREN/A0MXofc81iUhUmEisIHS8RLAfH/gkCJPxCLJuixSk9IvRnkTSWKqohGHgPdf4Mi5jwQ2Go0GvSPPPQDa61Rrff7/ZNPPnn16tWilbVWldmdIDOJb/BF+E5hPhHMJ5Ly01q7uLi4efNmUC/fAgCgsUvzc3fevOaFr9EfjVQSGlS0QhRBwm5tfANPNfZ9JnVFGrnibyaLckAG1SSBYoI7xeresEryRAKmnmgfBQGMgnz4J8kaaM4lazaIaInLAsgebe6z3gAAVRaUi/qgJsQObYipo6a6EAfvMaI5BYpoB1k3n0Lf78S1ZEf9wdLssT3X/U3RWaFJcfz48Z//+Z+XKEWihvNTvzQsxa0o5dUADejaD28mHsjx48dnZmZe+tKX7tu3b8OGDWFdZsX6o3/1e1PnXNTeeHKs8zQaHNAQ1Z7jVGXqIkoZCwWEzrI5A+IaQlhKN47jVu2jwToBQjHbuke1ZldCECbbiYOyFSeiaPz1R3fUC+k6pQG/cukPciZyW+f8wdGWyGoJlx67uQm6N2kBYPxnwQS0GH5EleU0jruprxFk0KF6qkbDQa/74xv+YdRdLCYCoInowQcfPPvss/XmonzyB7GShhiWRVEElS7wx3hJJnQxTvxB5je96U33339/BH1EmFy/99MfHC7MhiCWeIVBz3oR16SMo5OJ6kxITOw+el9yOeoqlpiYV7qsN8GAiJWKZUdZfD/zRETkpYUosdQQBC6zM/5urD5EqFQmrydFi3p5cacpROrDiS9qWvGls7QuXw3tSKkAVB1RpgPd/3IRSoiiBk12NBr2eo/889cfu+b/1mgGgG63+/KXv3z79u364OaJiYnJyclWq8XfoGg0Go1GQw6X4aRXFomobLfboMAq11JG9Y30hbW21+v97M/+LAAcO3Zs1apVwd0pm9WR/U98/N/N/Nt/314/Q7bS0EwIHtmtnEAYoUftuVPkDF6Rg1wdcWMvpc79Jq9lbexaJrXGPYoShl1EUS6J1nH5pIekN3IkFdZcKWyxBkS0ITgeZ3cZkrIycr2xU/XVLWNxAQ1l2TLllmnHRXf1xN3tLyRLtuovdR/6xj/e/7k/bK6ZSYrccccdf/3Xf137oqqcoqR9DDcedZ8LGsjQnCymj0tlWXa73Xa7/fnPf/7uu+9O/e/WxPDgY49/9N3Hbv86VRWgATQS2vUX6KKuqeoC9Vvt8IndiprVAFSVkDQgz7AIYY7IRXRteCvsz45BVXkECn8L1XME9K8IIIpNgqRnGPRqVDbTgajHrXuquiZ/Kr+5X+XgigV4olFR/VL0DnRVsW3FAIiyupZjA6IYpDfsuFPmRkce/fGdn/vE7r/8vxorN8Q0wPn5+Z/7uZ/buXOn6F1Hao9XORwUFFzRh+0kGWPwG9/4RpJJO92k1srjUQFPDVesWLF69ep3vetdd9xxx86dO9Ndf7ayC0ebp1+46kWvmzzt7NbGzf6jldHuipRgXrwVWRD0ywIE/gt3vnsKqOoCRYcxpdOz5DCwT3axWgDrDaW4xZqvoXuhMgJ/Nk1Q+iqPaOhsvhCCIaZmHVrZK3mFWVXImBzaYGV0add5kdNAO/WWbpgC+n8jkAfrFWE86oPcqDtsm6h3/OjRR3/02Ldv3nPtX2PZLDrJEaZQVdUtt9xy4403bt68mYPIsg6tnWZj3EY6XhHUcT2Newdo16NYMnR8QyvgBNybN2+em5u75JJLzjrrrJmZmZqdrKMBdWehGoApGidt540GsFwa4zU8naSY5VJZNoTgErolv92ceUlkR4ORZ6Kv5an1pdFoqGaTjkT3/cKnNs0U5mphVsFYV8unbv0yiFZV2ZFe21qGEEKLfJqSdjB9UpvGVaPu4nBxrn94L2BRTK4s2pO5j2Kt/eY3v/nZz372RS960cLCgnxFU5QxwxeyD9b7FqJrlLe+pXzobt1eDohRDgDGmIMHD27ZsuW666677LLLiqLYuHFjurOkbOL0ei5cLc6Noc9yqY7gT6s8FUVRFYWfdQPkQCNAhOFwFDYY1EBxbANlWY4GhtVAjZWOHFHV3lPtv+83envjDddg0Kcx0bpMIhMBh+zRf4OEprnulNqRIuJoNLrllls+8pGPvPjFL+52u3IMUoIxUB4EZPoUYvSWkrs2a5JEVaOKZltrDxw4cMYZZ1x99dWve93r5ubmtm/fjllUm1t+akGzrJz6+8wSv5acO4P6prUWjFHb/Z9y9xD5gww/qVl5Oi0CH0lhin+xRn+KCRF7vd5tt932u7/7u295y1t6vd5oNEK/jRmUj5C/Pgixtk3UtnNB9BnosuVff69Fvtoiezm09PT7/YMHD+7cufPmm28+/fTTb7rppqWlJb096r9vGv/CWJSSD+7+1Ov/aSWh6jPu8H/HxKjdu3fvbbfd9tnPfpbRvLS0pN1anu3xubr8hSve49FsNpNtHrKpI9SvfejatIz3nPxsNpsbNmzo9Xp/93d/9zu/8zudTmfnzp0cFkzq+ZdMiNhoNJZvHdVnkJ5ukpd3/iUT2+sx7yn/j5jEpBw9enT37t1vfetb3/Oe95x22mndbpf3t4n3rPODUtWg/AJJepXaKeobb7zxGfcviX6w6PD+kj179lx99dUf+9jHAGBmZmZmZkbE6xk095Okp9IoES33DaRlUyM71PCnlerdNgD4yTqs618+Q+1WiKeb+CyYxcXF3bt3W2vf/OY3v+lNb7r44ouJaHFxkad6OgiRBNmSgERtD1HFofH6668/YY8TynKriY3QZZvN5rp169rt9rFjx+67775bb731yiuvfAa0+P/Tv5r0+te//qUvfemuXbtmZmYAYH5+fmlpKc+WaOgT2lWZ+4WCt99+O1/lG091Sb2SXhuW5qSd+rIsJyYmOp0OTxy73e7x48fZW1redRk3ya1tqLYGSU5qsw+VJ3XWflNGZ6BshxbfT5wNrWlq1Zt0W2Yj42xdUue4sY/zOrTqyu/XPlr+5vLqeRwkjDErV65cvXo1Q4jd5X6/D37mBkoTa1Xtlv3iTyPrLiWuiNx353Kg2ussgE7mmHp4yYJLbcS6qqper8fIbjQaZVmuXLly5cqVMJ5heW1PZUvKODmulZOEoxgfqZrQqNYu6Z95WyfsjHBiGfWjM+fZkqfaUkvmHNC1ll1n0HTQIDshoGvbkkqqqpqfnx+NRsPhUEcqUJ3FD17CcyrpcWl4YLzqJ1WFg2Y0zOW69vj/cQPL1ZJoI95CVVs22b+aDEl/61Z3JtGXmpEyeFlGQv/eZa2s5y/5iCAlPNYXvOgqOkZ0yTjVmPBbq48csjLS5EhYjS1pSK+ZQR28khpqFQSoAz9r9V+isJZX2DlsZO1aCJ4AGtTeOsmjKZarEq31AqD7/X4igph5zHlH86di3GUACZVZWHX9CVH4Z6Iv5RUv9O/9GmOSGbGIje6AHhT6JPzIY/i6G9J/ITRnk8/eERE7GzJq3WJiQMGbV5FY/c2ycfpVXtbIuZ5s7hW51fpPlxJ5llKJFuMOC2GLoqiqKgmHyRt+EAtDrZ3RN3U9iTxoXaZByavciRaTarnCxNLKz1Im6cvItC5Qm03TRa6T82uSb7hIQa1ltZLIm9DSAjFZIQ7CSw2s4HUeTRTuoXQ4EQbwUiQ9FMSUZak3MSbc1ZYhJ1GiLzRZhM2yY6G2YGJ/pc953EOX0sSRnIlgaw2dkBfq1BnEnEoMXTJwjWzM1LOuCpXpkzs6Secxs2/hXI7aJBRMhLIWcHlBDehxQ5W/Wu/mUMjzJ1UlQNR/hVsCNdavUuqEaiaxxTKuhIX5ixFJbzEORcm1dE8/hRi1MJ7ytVomGUICBchwPI5TUlAb4XE9HEdPnY1HKnsz8t7m2jO/0DTUDZWtVit/lms1LVKJ3ZHiGBtZ3QOM/WNQYKqVe4iBmIxHXJdkeMnqaE5ceVoURT5GuZM7JBi72loXatIJHRIS1bKBiKqqYvdjeWlPugfKjicE1LYrZ0oi8xqgurjOzMKPmVVM5FloxTlrYy/8bpQebK18AoA4PEyivBV9J1EiZbfb1T3jlE94E2FK+JRQAf0kwBgzHA4HgwF3S8yolNVzo8Qz1gNOOEFjPkIuLMwfceUJiPNs8khcOlKJbzYaDV6M5RFpR1DnT64ThLFhbDabkkEQw7wcDodyQr02CNxWPpWH+CUlkx0DJKzRI2XBxtjt1rPncaunuTojPz3IGWH8MQPNZpPhTupE/kTsE7zqv3lUhKsVOlv9WTctN5rZ5I2sVjO1oBFSjkajubm5J5988vHHH5+bmxsMBsybwWDAtiY6zcOzKamTlHrWOmb5DnBRyLYJ1arAZTCtU6vVYqw0m01+EajZbK5evXrr1q3r1q1bv349e+rSW2ttrfOgW8xVqTFmfn7+0KFDBw8e3Lt37+LiImN6MBhw5f1+Xwdua7uq6fM0iZZSCTOjWpu/VgFxPZ1Oh++3221WBJ1OZ9OmTSeddNKWLVvWrVsHY/xgXY/Gt1zXjs79vOGGG3Lq5ISrpSBlXsRwONy/f/+99947Nzd3wQUX7NixY3p6empqanJykoc3MTGxDI3ykSQ9TiCeI375hJkHMq7pvGPdbpf/Li0tzc7Ozs3N3XbbbT/+8Y/Xr19/0UUXbd26Vc/Na4mmjYzWXoi4sLCwe/fu+++/v9ls7ty581nPehbTbWJiotVqFUXRarVOSLRxlKwde+2d5VMOI9Ed46DPaxGDwaDX6y0uLi4sLOzbt+/WW289evTomWeeeemll27cuFF3UvA6bjg6XJ2zDxHxa1/7WtxFSH4mFiEfpFwcP378zjvvPHLkyBvf+MZzzjmn1WqJOV5eMH7CVMu8n3oribPEtqjb7d51111f+cpXtmzZsmvXrsnJSbbRuZOQdE+TlLeerVu37rWvfe0ZZ5xByl3OK/lvknwDiRL5qaScbkVRHDhw4Nprr73zzjuf//zn79ixg/03GbV2LfKNX3r5EOPQsLXWbU5CtTSgya3dmkQZi6FkC/vEE098/etfv+iii175yle22212MAaDwdLS0mhUWVsRgHXHHubsQZCb3l/gTeyRd8UXicPl3xtSNxABLPGZnv60k1qnjJsL/5c7QBCKykZ5YwwioDGNsux0Ory5kV2Fq6666oknnnjZy162du3aZFFAfPFaTt9777233XbbFVdcsXPnTgBgH6PX6/X7g8pW1logsOEAGQR3yGVGQxKS8ZuAnoOaVp6MqUghCgHFT2LiAfjrOrrVXFDKX+TGDBbGNJvNTqfTajaLsiyKYs+ePX/2Z3+2ZcuWSy+9dGJigrdES+80FKOBqsQZhLZVVeENN9yQlMwBnfAA1ODZYu7fv/+aa665/PLLd+3aRUS9Xu/w4cOWgAA4ZOvtk0ItjLn0uoJP3jPod5ioK3WwHWjQ4QAAIABJREFUTv0t8DrSzTwcuqOkvhKmEsgjG+Aceu1PGbR2VI0Qsd1srV69iv2Bf/qnf/rud7/72te+du3atTKXIh8izNcpEfHee++96aabfuM3fmPz5s2j0Wh2bm5ubo6HURYlUzki2YnoFlFD/sgphuFXDfWMMUwvTTpwms8TJ6UaaOKGInV04wyVrRBw1crpFStWlGW5uLj4hS98odFovOAFL5AlEcrO8Q9DrTP1Am5rbfG2t70t47Qbj403++v7+s7s7Oy11177kpe8ZNeuXcPh8PDhw8fn5suyKR8AEI2h3j0O07b40v/rYB29iipXDIzEYoS/AKxUiIlvyRLrOU9/yvAN6q/lyxQ4kepBKIrCoKmsPXr82Gg0ajQaz3rWsw4fPnzfffeddtppfMBabSc5FUXxyCOPXHPNNe9///s3bdq0tLR08ODB/nDUbDSLojCFATFKgWS1xILotxwKhRC9iIzRw5S0/rYVaQ7AFcjajFiaamSpBs2UCJtBHl13qTd7/DjHPc4999xvfvOb3W53y5YtEEc5MPbyhV0Cd63I3WkEv/iLvwje/xAQJ2+pJBfJz+985zsrVqy47LLLhsPhkSNHRlXVaDbTl5DR2cpxrlkOW3/XFWGr6IjvTAeOSyy/Qn9PWXcwTQpr/xc8W7QecP9GrNHIxrIse73eoN8viuLMM8+89dZb+/0+vywsMp+TdHZ29h/+4R/e+MY3bt26dWlp6cnDhxuNplvuieiC6Z1aoqkspE5QcPRzCgTr7DmKvg5IimQ3QXAEYrl9QjTrawBAY0xh5ubmOO525plnXnXVVSeddBKf1CjvRnHIkv+KbmVvlrORMgsO5QJlrZ61WHjCpuYJEcuyPHTo0L333vvqV7+63+8fPXq0stRoNBk3AQ6MDH96T6ZvvBuT8SqgMvzrCCy0huQKPN2yIQg/QvdirWwjNFMdmkmzRrI1Gs3uUm92drbf719xxRW33HLLoUOHhJjCIZ3uv//+DRs2bN++vdfrHTx4sN2ZYDn03VSd9j/jszUCnVJdwEMScgdrI4RUCNOU1+OVehxKYxjrC+shJS63moTUXQcyNputQ08e7vV6k5OTr3rVq+644w59DlhgN6ggBqJs3kw+uZLIp0ucKUn5ETP8FwAefPDBV7ziFUVRLC4uLvX7jWZDCAaeeoo9AXqKPQnyFLAZaYG0ohIU3fLE/r2eysRCIQwBfc95JgSqWsGG5or64x+RbbVb8wuLfPLOc57znB/96Ef5aployIWFhbvuuuuyyy7r93pHjhzpTEyGc0MpE0cKQuzhSwmdEuJF6lOhL5DVdVs1GGAbykpmx0aRN6Gidf8lGlirAEXASC3wVbvTPnLkyNLS0rOf/ewnnnhi3759mFnxCK/+WGhGJqpZE/e6lHf+xiVnxP3g5BoR5+bmHnrooZe//OW9Xm9hcXFqagXZ9FgWxx8uIQR1esaP2196FYNSkAligYz7tgQhIViggj8fqI+/9wylpLT0XfHDw9obJhUpS83jWPup7xJRp9M5fvz4ylWrduzY8eUvf/mCCy7odDrSvriDPLvfvHnz5ORkr9+3loqiEOEIJ9UARadtuTsyFfH0UtgOxydpJQ38lSbgc6gpOj2BIhOZJYFy7G/EXrP1/K01aBElYxoCAIFBQ4CsCJ7//Oc//PDDW7ZsyTEtSRyM4F76xBQuZS1Ar9locYYsuMGpKIojR460221E7Pf7rOyDOKJnj1fIQj7+1+VSCNTsIcUlIkL3/Uv+tjARCJpZFtTp/4jazZMahCXKj/GJPY2xzFDdrYNyRCU0g36fP2wwOzvbbrcTPY2Io9HoiSeemJmZGY1G8/Pz0+pMwIhuUAdrAAoHX9YF7zSmwRGNQe2PayZ/yqk+JFBUjagDsWlA3pPw98Ba7zfHaI7poy+SnqpsRO12e3FhHhG3bN163bXXLi0t6RWMUMYjM9mXAR7cxHsT9OYPSYnLIT5J4q8cPXp0+/btw+Gw3++XZWmDnQrj0PaGvPcK3mkIaK9xocNs3REvs6QRDRPmBlcxZObCUpE3mFoRRdotYCDWN9op1IkniNbazZs3z87O6ong0Kdut3v06NF169b1+333iijEdJOmw7iCX6mfSgReES38m1GLxExBBjH0zPLi7zFEaXJ62brguOdqjGYKxEOlGrQHEppGrCwNBoOV09OHDx8ejUbiHEsG7XKMS9xuqRU4xFsExyV5Oj8/3+l0hsPh0tLSiumVbmDy9Vv5Qo18s50Hzl9TcFo7aCB/LK53Q0TVxFAjYs3s/k8IBtGYwhi3I4p4i5bjXmBkxGBhjiWvXiKueM0DkLAqRUJIRNRqtZ6cPb5ixYqJiYljx47x/I+fygXHglasmBoOh4hGBIMcAYL7lNAtqGr11E1Bct+DFTJZAkOEHmIomM1YjBrMnmRAOaJJexp13gUJ8QK1lqEbABhjWCeyhuXpmaxyCzLJ+2z6fpJKyDaLgndHkgJai/PAFhcXp6enOYaCBnkhMPBeeR0EyrcWM8X2goDPYg7uR+R7eN5YorDhR/xBQoS5ubm9e/e6FRzEdru9bds2W1nPDe2CRJpmPJrTC6jzMWoZU1WjwWDAu9hkVxMoTcHv7o9G1WAwKBoN8mY/tKdgndNNw5r8YfHhiGxK+2eMKcvSFKYwBtH4kKbnIssMASCFB97PKMuCyHBgurJ2WA0tx6mt1Y6EyEDuRsOJoMwJEYfDIQBNTEz0+/1GoyHYM9nmWOk7XyTvtoQzKyiYmuBPU7YRRMSFN9Clr4ToIJxTJIFbAImP6L/Nnqocqse066JlMDudg+bxxx9/9ateJX14xzvf+Qd/8AfD4dCTUqE6hOesraywoV7T6Jv+1lNIWFVVq9XiA+EpQ1iv1zN+b2cDFZIBY1hjQjd1sqmXf3ctG4X0tBBNYaytbrvt1uuuu+6Rhx9BhJWrVr3iFa948YtfvH79+qqyyYmiwZABAEC/37/mmmsO7D+ABkej0dq1ay+//HLRzeNVQEy3p0Y0RCSyVUWdTsfGW8klEZF8bSK5zxe8pbbmdRWNbJ2STSEAUFXVxMSEtRYADRrCKoxDFI3T+Uw3mQwSRFonUTnajJJgmnhCgAaNU9LMBcYHH/iwb9++iYmJ4FxAiGO4f61VaA4WEZSbEfHJ33yKieP4LPCj0UgUs/CJN4WC0xrGIFryGhJAwTqlW6BpoCHrAnK2ztGNgKAsigMHDvzCG35ufn6h2WxOTU4CwvChh26+6SYA+MvPfe7FL35xook00xHxQx/60Ff+9m/lzjX/9E+Ahir91bjwHzxTKGu6FQXxLiCNQH2ht9olSYoE/Sol82iIXJt4Wz0RDYdDIkKDaNCQAdYlMrkWx065ieDdawVrcXRA8C28kY6AaFlkJT1G9MK0I/IynGJ2nkbEj3ofo06qT5jYpjcajcFg0O/3ZSYtxBwMBrz3g4hMYTxJidxXqchZLqBE/plunoZCK3DhHgChmzHm8OEnX37Zy6anp3nNcnb2+HA4Wrly5cz0dFVVv/TOd37+v/7XF73wRWrbk6cXUVEUV1111Vf+9m9nZmaIaP/+/Vde+Z+3bN3W7/US9yxQLvabnz7REPzLlHzggbyUlIQ79N46uZAoB+h3CrFud6wgDWJkc/Nuamkt8C4+YiWr/wPvmnmTqpBdA2vPHnLNKQ56XW0toSEkjems2x7FNvzP4Zn3r5GPAYW/P4FWjinmGMMfBJF394WS7g0L1tDgZu5snEjeaXAqM/LWQPy3CMoQNDQRHyVdFMWnPvlJAJiamhoMBocPH37DG97QmZi45+67d99336aZmfXr17/9bW+7/dvf3rRpE3iPg1NZFPft3v2bH/gA71Tev3//r//6bzz3ec/r9xWa6520ZwJlSQynyclJPstFWCNJ/DTjX55QNFc+dK7bRaOMU++gwN3pdDiIa9CAAXI09S4v+shxCIiqCZD/6h6vl4DT3I4rRP4rWfrTUEjgjwQIOw/iRCmc/Z4KS1VlNVccyeSOv3gaSVwCBAQ0hREuaMUsDEB5T85a3mJjjLFklQbgkTttEDoqQSFpVNFKz0bQ4MMPP/z3f//3mzZtqqqq2+1+8UtfOvfccxFMt7v42x/84He+8+0VK6YB4OabbnrLFVcIAYjIIB49duw3P/CBFVNTRVEcP378kksuectbr3CTgfr/4CfRyoDAWyoFuNZa9soEfuTPkNCKVataDeiaYyV0kzr+l3cI/UkAAMChQ2NMYdAYg0Z9wtb/w1tAGe8OQRSsl5OBiFB+9qN22AACWbKVdRtiajS0EycL5GflRNbF8kB7Ia450dBPgy2Ibner2x3gx2g9V+pNh5p2ExEaLAoTbzZATytdLcrHu4RugVaiL4kIyBhzzz33cA8PHjz4b9/3vvPPO384HA2G/Xa7/avvfe/8/AIATE1NXXfddb2lHqKb6gDAqKquvPLKBx54YMX0tLW22+1++H//SKvZsj6A522fTKRJOXhPnXAoY5YBqv19NPIp2QYnL1nydqVktxzfLCXalTQ6jhkkCtJvV+WxGcNvR4LoI41OIv9RPqe+FCcgKGHek0eY0si5H+BVFZK1Fi1a5KBSlJsAbAhnyBYtK607zkP496myJOygR8ToBz80hTOLSmLSI4K0KkJjjCn89EDB08sYsZFzOjux9f5brRg8MyRExG/fftvkxAQ39+xnP7uqKp5Yj6rRadtP4z6sWLHixhtvHAwG7U6brUJRFP/41a/+6Wc+w37IgQMHPvXpT2/ZunXgj6KrVc5PnW5BYwYCIgAYRDQFeVPaarU6nU5yxgipt7sTPStONvtyJR8COc61SCrVGp4FhWFTlLyNXc8XBL9al1gfnZAIkQAMHJfAudTkPkIjnhBPGsWpJltZy9+bzDuqHQ1rq6pK0eI78ZTYoXkAfu+qkzIMzwEKU0jrvCksURbGGH7diJNBUxTuS7BEijCgJrRCP415ouDtE6ivuhERzc3NN/yG7NWr1wSCAgLB1m3buouLvJteUGkK84Pvf/+9733vxo0bEXHfvn3v/KVfesHPvnAwGCR24BnSTQl+Tk8TH2aroxkhj18LtOoFfv1SOl+XgoFlMI3xKS0Sv/Ma2gJhURiAIp9raQQRGQCyNuIPuZ9g/Usioni8Rg7fgUcUnxyJqGLPw2Ya2oczKut2zSoYPDUoiw5JuBJ4oqntVwEKtfYTbzMAMU7+jrXWGDSmQL/PwkNZKKbLCZKjK/4TFCby8AObOYPb1UUAiMPBIHoKYBC73e5LXvKSldPTRVEsLS1NTrTf86u/OhoNyVrNwBNqZU2uzIg57wY09RAR0Jjgcsg6Nid9bJrAT66TRwBQttttysyiuNR5Eq4Mh0NRNgDkD2SACDKBJ8BQBgBjNJKJjKvThJVA6xWQmwJ5JU3uJQF0+5Kc9s1iTx7KthpVgjBhzHhuBE44AgimAZz77xYjxMvQPzlUH1wOa62cI8N0kHM8rD9hsSwLazEiVaIIhOg+g9MIvNvV41v2pJC1GzduvPvuuycmJgDgySefPPmUU4hfAEMAgH379m3atMlbakTAoix/+7d/GwAmp6astceOHfv7r/5js9EcjoZaOy9HN4/fhHSKpOBVUiCXp6+RfflExJ+esP6sn9qDeMT9kBXA4HhISckksBg/AgAAjkBLY4Up/EQP1EXwoQFI3hZlGhWiaeLXe5KdSP6rgSTLZY4wApEqBXRlq2pUOY9I7amuZ0ecIPoTMQZyBeP46WBdxGfTyNyF1KlC8joGKEvqxudRUwNuZdOCiDiKWcvqgKcTiLue85yrr76aq/rWt/75ggsv4OobjeZ377yT2z1+7NirXvWqRqNRNsprrrnmS1/6EkedDxw48PH/9Iktp5wyGA6Y+uMAgHUp2LLEN4tBrC94x5HgsNvtzs7OyjzNquOHZMz6DsZbRAOghZTyF+te9paLADhrAcAUplDhibxO5YClrqJA2e178QpOtqQKAjwhvdQTGGMgdDB6XhSFJYtkarQyIupP3xmtYEQxK6J7LCcqWd0BADSmAKclLZ9Hg9kOAg7884B5oi+8gWA/FAEpKOrIhVZ6W81CLQBecOGF/HjTpk1/8ed//uxn77j44osRcf++/f/b//pbfMLLUq/36stf05noPPjgg29/29tOOukkANi/f/+73/OeF7zgBfzmSK4CInKhj1pFJKsBsSdWLZQY0I7LvDtc9lNogUcVy0+upS4iijYnaW2deCAQ+9lapLhqOT9BU0FhOmFSUNuKSQRy/AARIu7evfvGG25oNJqkcA/goeUheOjJQ/Kawvr16++5554//dPPsAFRfRAAust2q/2Od75jNJLPOdbwA7yJDBcKvv5moFLhfWgGdMCuSjIVId45VBSWsJZoOd3CbDHW4hSnM04//R3veOd/+S+fm5mZ2bRp06//2vvPOuuslStXffvbt69du7bVah0/duzCCy/csWPH8WPH3/fe905NTRlj5ufmduzY8eY3v8UdnxAGBj7kajyKjfbHMgSfQOyziFoIlxE5RaDnhYlGkPwQn/HH6rxEfx5ZHmlO6KsRLJKRADqX6eiO0uDRhVLewqyiKBYWFj796U/X9kqndru9Zs0avm40Go88/PAd3/72CUudeeaZ737Pe4wZgEZyjWVc5jok5pgxBtSrhIPBQEjk7JgxcmYhuEPfDFofB64lWm7r1FWsrsHDHT/wmx+4+567vnfP9/iLTUcOHz506NCmTZsQ8cCBA9ba3/nQhycnJz/zmT+59777ZmZmqqqaX1j40Ic+PDk5yedjRIsJaIwR9NaDWMhHJLciCokqSejG8iEDaTab+YsRmvqkTuU0/qQ86UGJ8Ryc1GliCeuEmjICo465L4oCSL4j7f9fl8gv7aY1xz5JURStZgv8rqOnnhqNxgmLdLvdqampZrMRIilag2u9y3/GRoDcYw4yGmMkPCHvvTF95Ehp/iqXwzeaoiyRmcdIHE8350v7rojy1uCWXO116770//z1Jz/5ic9+9rNJNS944Qs/+MEPnnzyKTfeeOOVn/3spk2bgOjgwYO//9H/sP2M04Gg3W7za6McH7eWIhTLTAI0QGvkHE9EN/CARmNksrG0tDQ/P2/jc7u1XwEKgbKzAPzmuWjpWyM7dzOSGskf7aF1NrhBIvlFSIGvsMqIxxNGBfoO/yzKstFY7uzqnzChMe70DOlcQv38vgMUkVCDQcgaFrFQZzTKGmpi4lxNHoQYnKFAX/Ttg4Y4othQivNAkhMAANZvWP/7H/3oL/3yL3/vnnt27959/Pjx5zznkrPOPuu8884ri+IHDzzwa+9/34YNGxBx375973/f+97yljc3m81ut7t79+59e/fNL8yvXr361FNPPe+88ziaFDfku5vTDUCpNtUt9I8cxby2UHForX3FBchqj2Z6QjynobW7LCQ18deHcunjO+JmVP7YhODzQVB0MX5jD9Fr9NjEAgGVRL3+AAD27duXDylJWiV3u4vHj8+esMjje/aUZWmT42IdTF0vwqJwbaL0H2NCBKKqqn6/r1UI+T0JojusdSuZjhSqOoTUznk6ocJykkPT1pm7U04++ZRTTnn1qy/nuF5VjRYWFpd6S7/1736r2WyUZTkYDADgjW+5otfr33DDjf/LL/9SMsqLL774Yx//+FlnnRXO8K2lRpBwRZSxpHPagtxKYVAE7XY7cTlEQRh9eAgA+DOnNYXLbrcroqAlw3cyeNykYtrod3FY9z5DxbzRsad4ANn9OuqH6BTAaDTavv20q666CnkfHw+K17NtVVV2NBohQLvT3r9v3wc+8AHGdLe7eOml/+ZNb34zRzD43AW3XUANDRELY3pLPT6ZKpvCuEES+BdEiNRjPS2M/pHZOtNKzyvEzxPOAcCIz+uobEYcx+7UCUnIGK3cLRcDsdYS2VFVVaOqstVnPv0nt912K8fpDh8+/Ddfvmqi0/nMZ/7kjz/1qQ0bNnCQgYPoALB79+4X/OzPfuXqqy+66CJbWb26BHUTZ0mICOoFj2QGLf8wZ8TUd7vdhYUFcX3HKVMMi1NhBREAyvx0R+1y5BUlmlub1yrRdhmIlXsDoBHMt1Tog9PatWvXrl3nWwit8FJ2WZStVnNqaurHD/1YmpifX1i/Yb3bwOCTcUeLGDknh53CXr8X8WZcvHR8aCOZvROxX+H6zxv8Bcrgt/xqDc0qWhMqMbKBVqm3zARzLzoQaUB76We6kXWbfKqq2Wze+Z3v/MVf/DnL//79+//gD//wWWeeece3b//jT31KXpIAgK1btz322KNrVq9es2bNYDB4/ete961bb924caPSiIFgtVGM5UIbmozG6Lhjq9WqnRRqMiogRZE3YEAnaiP3vsfROgE0v6KX5ozWC+R3lI1bFsboxO/8OCRby68tFmXRbDTky+aJCWTQD4dDCZcycTF+Z1hbo/T/ihm5/k6oogWgwkoQC3VJ+iMbEnj1Xou3onZMrjo7luhjrsqfQSh8qSyRQdNut/fv3/fud72L9zrv27fvbW9/+ytf9areUu9dv/Ir69ev55vveve7L7/8NRMTE0ePHv3d/+Mj+/bubXc6APDVr3717W9/hyWbrKdG4AZIyKVgXU83AKiUkOs4tE6apPJUKiHvPpTCXcmdr5XLRd5ADGivoTPICntq/9ZD2Z+D6WWFDGJZFmVRNholb5/nI/XHffXanXqDTGcCgKqqKlshYtikKagXxphY+SjK+ys9wUcAOVY0RJGste12e2pqKuGf2zPp9yf4vYByIACkyI6dipgbJIrAbSQQyvmXJv1WdWw0ymajURTl+9/3/qmpKQ6Jnrpt66/92q+VRfnQQz8CgEajMej3zz7nnCuueOvk5CQRrFm75vf+/f/5c69/3aZ2e+PGjf/hox/9+Te8odloxutQGtORkUtUA0Qo969IA1pQvqu1o9FIf6sAsnr1m5rGn7HBQSRrbcmx0tydOGGKfGinDFINrdYFPAOESd4kRNceyU4r81EmCAZNYYqiLMqiKMuywf81Go2yHI1G1aj+OyDSDQQiP+nmrU0VVNayO2j0Tm1ERJuTMXFD0AsI+jdG3DsJgk6r9oKR9y64Iv7EBN+sbBUd2pSQy9EMIuEHgbDQT5kysv51duJNP55uZafT+fjHP/bggz/kl7Lm5ua+9KUvrVq1qtfrH37yMHfg8JEjb3vHO6em+IgFHA7tzObNz33ec3/4wA/5Awx7Httz6qmn0sjFKEUjCJm8Bgiyj6CpR8Hd8O4AWhQ0E1FZlmUZPnAsNMTYjxD+ihhw887lkBzjAI3Z16is2nnjJ+s2AnNgj9MzXhNrlay4o86L5PVC5J3g6Dxgf6pe0SgbPGzLn+3Jd5DGmCY3rdNhUwACICC01gKj2EQKO+wSi0xq4JOmFvKGORZsuauQ6gaG8de0vF+gPWON40AxT0Ueq5Z/0kjmrReI6F4bKIqyKIrSTHQmbrnllk//8R/LXudPfOIT5553frfbRYOPPfaoEGbdunWhPQtFYS644MLbb7udAX306NFTTz2VdUFlbXqGt2A61aox9dRPIkI0mia8ICUauta70CgVrHOeUn+8I9dIy1RkreWPOAVV7Sc34/wKNe+L+KG5Ij1Dd3SMoNkfFekUdYE+SrDMBpowaMa0A3ZYClGOKo4sIFbREm8868mA7Y0q8OlaYGxlrTV+mSBxBHmYcggsIro9gZZi+YegBCgmIDkXWfSzANnZH684CxOI1mw29z7xxFuvuGL9+vWIuG/fvje/+c2vee3rhsOBkiGX2goP3IQJ4W8YDgc8ied3xSwRVmjBenpFMxNmI+T/eXeD/zK1BAb9fp+/zMbuWRT/zubrgb3+wn0aWatxnaP2jtC41+vxZw791KPycSbJouZ8EZbBxogOLPF0KQqDxhT+P4E1A5qH6sAxZgaWDsChGNgH0QF/eUmGAC1ZsP9fdW8e51lR5YmeE/f+fr/MrFyqMmvN2qAWlEUHBJdxwbFsbVBceqYdFxRU1Gd/bFSwm7Ht1lZ84vLEtu3WlvZpi6BCoyKIjLjhoAg4CMhSrAUUUHtlVu6/7d4474+IOHEi4v6SAmfe572g+OVd40ac+MY3TpyIOAFGz6kiHldOAApBOwo31URrpYnAFQ/vsQAMNUTjRcWykWMDUSIxEcSVP+IBR8k2sQrN/BDLBErlea0oig9/+MNmbcHCwsLSpSMf/djHlMKi0AAERCNLl7KcZudmpdi0LicmJxoNu1zAup8kM1pmNC/rDBJLYmSbhIQsUIFrex1Ql05nJTJD3+CUAl5RpcS+YTrZDoHLxpvtosGU9OkU9DyJxJmHNZiuGIDQK2RBudn8YbCpURZD3hLh1ttZY7Ih6MyOJ1tuI6pYtFIZCPyiXXCrX8Ci2Wac7FxVICxJG6GHBhFrMAFXoIgI6IZgSOuyVHmutTbu6TnvGG73SL5TSBbQyB1jB2KpLnMLF8rNVzyFZmKIYiyrLMtUrZZ/85v/dsMNNxjVeWpq6tprrx0ZGTGLq4381q5dayRUr9fuv+/+U045lQu93W5f9t3vGqsIAGzceISxmodLdMFpxBbZAKCR1+n5/qIx5pMHtZGb0sJuB+EGxOD24ZTA6wVRMFYOPo80HQjVjJTneZKUNalpgWBw7s9cOehQbTaX+bvI/TOxqNbNhjClYxRChcpPBifWUQ4zMKbB+uAEYJem3Ge0iHYlBZY/0fOgLR5CW89dAWlnlgHeXEYQgdFGDNYsbLWQmxsmdxKLICxJGtDLDRUqzKJFyRbQjUb9xhtvPP8Tn2DV+cILL3zuc587Nz/vGIZI0+bNm823x8aWf+c73z71Va869thjjZB/et11AJBl2fTU1J+ecsrAkgFNxMQsvUx4ZCMA++4F0NrZ/V2322po6FePSpVDwoyPmfUqH5PizSX2dTL/3zNBqKmApSPdarWM+yYV1sgrAAAgAElEQVTTZkTmDa9XhEZ/Ti4GxSKLJAiOcKyFkR3ic6kcPqQtpkG6AQk9uUSOgEF4vSAqXcddWPuAnRBYulXK9Jgzt6M4uP6N+TXLOQGgZIsxW+eqkMwUbYCjIBEaYiwyhfV6bffu3We87W1jY2OIuHv37te9/vVvevObm97xhfmkHh0bfedZZ33j618fHx9ftWrl2956+vs/8MHBwcEnHn/8W9+62Iy2zC8svOUtb8lUVpYlEzPDGoBXX4DT3SzSichwNmqPaSs3RATQdo2PZWUzvMAgMV4CzSljVYsBwqh481Ls17Q4EiKqNrXEtlyuVxh2Y0yFMFoGkNOSpdHStUrKlU0AbLmbgNE+uL5ZU8hTx7OROJnWj4DVD3vH8rcrKltCBOCUb7DqVMkGEONjwGgewoFB5nbtZaGx1mEKSSml7ZpIZ7kQFs1Qz+AYIASzFRqKho0ZoCzLj/zN37RaLTPUBwCf/cxnIKRDkzcq9RlnnHHNj64+ePDg8uXLV69e/aV//CIA5HnOzpM+eM45Rx99TFEWFsrOT6Q7rmZrc+K8eBOVZDuK6JGtwOirRERm9osxGposV24CDeF26/KBPDpPjyvp3QTrJZKoY9caWVaJi0dzobJhUkDZbTtWVTCCcJRt5nVZWicFxJrWU0W0zRigbyWZXQKnqYn7cUfc6DzUEgCQI55Sl91Op+bMqNK5ILOA1po9Q3e7hSQC2+0QrZl/V4JA9UQz2nF+1Wg0/vGLXzS7qpqh7P/+k/++dNmydrtNEs+uiIeGR77xbxefd95fbb9n++joMjNzWmu9b9/estTnnHvuG97wX22RssNS33YBQOC8PpYbusbFNnSOLxARFQF1iy45FzO8d7eUm0kkT2cA7m4I+7RR5Lz3URlUONk/wjpDvFarNZtNbV0BERkrh0Ozt6YFti9vPZBoNqYNpdjXc9qEIgCYGX0aeJkgAIBZU8iT8jptv6p58UCs/oaUAyCLTSgkrIcIb2UEdpkNuPn7AGDGuow9VQlNGt0cL3KLADRpKs2IlNcvwH8PWXAeyl7ZiIkAUWWZyvP8oQcfnJyc/OvzzkMAlWUvftGLTzjhOWIZqBOAtciT1nrV6lUXXfS13/72xm9feumdd95pnnjzm9/8mte8dutRR/mOGkntgpiADfPZ0o5g7T7HdAAAzs1ICaTKwq6zTG1u3LIxfA32eCwGnWnfPO8ZWurNrIf04mb+kjEZdtpt11kXxlOzRDtiFwtl12z2oGdM5l2AdK5jlQ17smLliosu+lelsCTSZTkwsGTxoZYgSMpxRBK0pL48IjURWNlh/+1E1O12DZTNVrNaDOGCY4rh4eGiLLM873Q7fkGwU6MlkCWalZh/onielSMBZa45749btm791AUXKOcPzoxWsNxc79M0B4CACFjqsl6vb9v28m3bXh4JqXraGbr6j0SOfcHpZj3ZGiylS8d9PKW20+mo0PbMrVwkSXOglDKY5ilJAb1Dokkvom8gYl9fn1lNaXyee8caAGi4WIzUuKKIfxTGzWegSLv3uI4GW1MAaU2jo2Mnv/SlvJNdqcuiWz27ozoEzSgIFq4oD2ZrEJq328gLS63b7baBdV9fnxKmU1kMQ0NDZVkCULvVcp1pIVbfmIllqEJo4a6Tsvpb6ZmhEO1GncwaQeKWLejrG4OyyTdqSKZMLio48nKQVM3U4OjAbUuRwtrgut1pm8Fm469VidlELJJUCQHnLYlhVpZlsCQkQrMJXDNSrA8NDTWbTSLK83zq0KHh4REy+qTQMOKgEMGpGYKqPUPLiUMuGN3TehENfR44vVQXZclTzA67SDgzcTMK4KYdSAWRCwNA7jpgLyqYnJgwUx+VUiMjI1LJkxJev379jh07BgYGDh48iL4bFfxX1ZpBrHOI6bCB2JTldyIpLtu5DBnMZCXY1+LwhWbNGJBStXtEKNZQrbwBIBw8cMAMgG/cuJG5FgQNq2SPZMYNn5rfXIXOSc2BrKYkAjOluTU4OPjEE0+ceOKJWZZNTU0vXbpMO4cmFVB25eKYBhKakWjmoS8FAMaoo0lrawlkiZoUAkXF8VTLBiT7WusHgKMcW2wctwex5G9EnDh4sK+vr9vtzs/P1+v1brcrhckHfX19e/bsGR8fPzQxoclLLJCbBzBGl5LNuq3QBM7BskCPAMD/DHN6nNFTEhz3KASmXQE4JYwrrH9eEDYBEExMTDTq9UOHDm3dutXAV4tV35KzOZgMa+FmEczU0/n5eQhVi0pul7dQNKDPeMYzms1mrVZ78MEHjCNAcAYmB0kJbS4KyUBxH1F0FYP+rOOYaCBYSNaFp1wwXDyuWOQxsboXFYZ/lhBAgdrx8I5ani8sLBxzzDFG8WCBSC5Zs2bN3NxcURT9/f07H9155KYjtdY9KSAgAuzVsglBAqJjAa0DDc1xkdOjnX4Izpr+NO1Fvj1j4QFju6fKAQSkVHZg//6i223U64/t3Hnqq15ljPfpupMo6HASGM/Oq1ixwiEFdPrA8573vF/+8pcnnnji3Nzc7l27165bS8Ei4UqmiUolKRJRMlbZcGgOdA0rG5J6gFXKYsY+7ODKxR47Dk5X/BEEHUSVZw/ueLAsinqttmPHjte+9rVmljoKoxDLc3Bw8JnPfObs7Ozg4ODdd925adOmdN5IwgIhN9tzLy0WJkQsIAnB5IA7gyzBUH5PJ1DYYxbdvlTlCJo4rf9w5x+MR57pmZnVq1e3222bltC2FslQHpDrGCCiyl0wjlHMgQl5j8C7IyulNm7cODMz0+l0lixZcuv//F2r2cqyzHS4bU/F/forrufioBygWfblbcEAJGXDRRarH4Ei+nQDAQUFDgBAst7YwnCPKaXm5+bvuO22er3ebrcbjcb4+LhyW0obP/58akT3ohe96JZbblFK5Xn+u9/dUq/XWUjOjhnIykvJa8yJ7FhuokGj4BjEVC7yucM/Wmy298F6uldnKuVmzvK8du+9987NzmZZdt9995166qnGQNTtdjsuGOfnZotH6TSaD+Q+6mVZZqeffrorMa9Gh/pWMDQIAEZtZ1Fu3br125deevQxx2itH33k0Wc885nGRawrieCfoxxHxZEOrRwbgQLDzhQHkUKbajt6E+2c95THDytKKCheZoTwMaVUp9P5+c9+1t9o1Gq166677swzz8zzXDri9hMDnS3G7F928ODBpUuXHjhwQCm1dt1aIJJEwFJCTwcoGjvZ8RBoBpDdQC8gzwxybB3kM0+TnhPRHY7c8jzf+egjd9x++9DQUKvV2r9//6mnnpryqWEEQwq8ISf1ML4ppbJ3vetdTLc85zg9RjsElaUwHB4eHhwauvvuu1evXl2W5S233Lxu/YaRpSNC0ZBFYsoKlCgPdxA0txBpzw6jAarBatS25fSlQo4g/tiyCUpClI1Jap7lBw4evObqqweXLMnz/NZbb33Na15jJq9x6yNLwgST8M2bN//kJz8ZHBwcHh5+5JFH9u8/cMQRR9TqNW/ORCZmQQcBYQvVzQ7B9+wKeoaGGOdeYH8kCwgp9cI0Gpsx4G2333bb738/Ojqqtb7++uvf+c53mtV0Ee+imFzEgykRMFzsSET4q1/9ypzLgZXqdC46yHLVVVfNzc1t3ryZiA4cOHDUUc848aSTBpYMNOr1LMuEMdobXPhSpFCjgycn3eakdOuMxLJcvsmL9eXwS895HoevLKL4310hom63mJ2d+cMdd+zbu2dsbDkiPvjgg5s2bTr55JPNdEfGLjrlL6qZANDtdv/lX/5l8+bNo6OjzWazKIrnnHjili1b63Xr6BERAZDbLd8xDHUMWVX8RES57NsLzQuPr7CHTLnG4o8KPTBt4Pr4zp23334be+q/6aab3vrWtxpvkSwxj43EvsHJIzFwCGy5+/nPfw7cFAkWhATZEaCjU6XUjTfeeM899zz72c/OsqwsiomJif6BgZUrVw0ODbI2yaXrsC2h7s2Jrl30uJREzQOFqUIiLoPTwKN6+NRLy1oAzICWLoqiubAwPT3T6bSXLVuaZXm3273zzjtf+tKXnnjiiZHQeFQWqwz5ANDtdi+7/PJcqQ0bNwJAs7kwNze/bNmyFStW1ht122PJMkjFFUoMkzYtkIVlYytLO8wCEAqXXyLRrX7a/UQrO1OxyrIsut2ZmZnZ2ZlGo7FkyRJEnJ6e3rFjx5ve9KZ169ZxgWHovQ4EOKMBFylJ7XbHwp/+9KeLJafKo678jLRGZVm2c+fOa665ZunIyLr1682KQ1eiLKkg8BUUTsMqk1GdPDDtGDGJRq8jOru/66vIUkJ+d1FSQv/Ho8fYGTqdzp49e5rN5mmnnWZ2nUpTHnEzhUMtJvz2pptu+/3vN23atGzZMuStmCp5hQicrKCXuNytVG5coER+iLoiBhZluLiHxRAVlpOz249LmJq8zABMWwwA8/PzDz300Lp16175ylfW63U51SJqcAyy5V0DXAluSeR43XXXsdAqBQgh7JgRmHjkr1KqKIrt27c/8MADO3fuXLdunXGdYXR806mvlOD/+yFF1eLBzOwxPe52u236MRs2bHjuc5+7adOmLMt43zGdLBCSMIIqgsmybGpq6q677rrrrrsWFhbWrFljpgUbq4hyTpj+fxfIeX03Zop2u33o0KFOp3PUUUc973nPW7Fiha26Lsi2B3oQWUSvDGh7/JOf/IT5w0/MFRJPgRvFGysxbm9J40Zy165d8/PzZnWdKbkocfwt+aFULtwsyGdk6xGB5nBC2vhQjwEmbtQMtoaGho444oiBgYGBgQElNmLiJ1NA869sW+WHjHCMrerxxx+fmJhYWFjgmFWP+ey9JBY93EssldmXJcJpTtvqNOb0rrzV19c3MjKyfv36gYEBs4acKJinIFt7LmjZtZPxc1sHohoQEf74xz/uRczyM5VQrsxblD1mFx6lNKmUSpI5YNDLCH1CHflVflq+IicTysyDWzcpZRSZgbTz4hwolWGuZeWXDBF1yQ36Key4yCRxYxp9Rb5l1LbKGPgKx8M6HoYuIfmL/Lk0YSkXsMTAIS9KRgrxRdgkkqecVWsEBQDsH152PKISR6ddMGhJbDILAHYhJ4T1I0pKZRLTh1MQmIvs6kYKUfq/MQfGOBC9ztVJ1kiOR4pY5jyy2MgaH8UAoq6nxclp4MKLYpAZlwgDUZ/5eRmtzKmstOTm7ppb0ju6zGxURlFlk3lJJ8XLZET0Ed2V2Y8qPONbvsJPyrKQ34ooLEq8bL0Z5Zlz31qZd177w0TmNdq0OGVJpEJMb1XWhBTflVIDwcfRlUrRyGe4Fsk8R/FXUosUrsyCRCSJ/ewgrBJRpiKhyajSNJsDHW79EckNkiBrJn8lQozMUSXOZBFo4Vc8/ZxMUvShynRGKI/EznU7eiaqe5xCnugMgphl5eeYmQrBrCmMKEqKbJEDSprCLNmBS9rA+UU5U1umkuti1CBKifNvak+o5PIIx1EhgaiKGLqDZyEustZBFltUiiR6KjL9lZV2cTAx4isHCiL1qTKG6IsgxCiRLWNOC1HKSjtPu9FXIo0/yp1cMiy/HkUCYrKRfF6O88tb/GskUDE5ifEU1YM0MAFECYIQhZWUxt+SUuD8GBih0LYhpD2p5nK03CBK2UmB8nFUSCYwdrlucOsfiZ4/LX0SsFjT+aJS9LI+R8wX9fejA/4uuuZVcpCs/5W8mMYpaU8pJdlHVjxZLuZ1Hk+oRKSELIQVkiXJ6Y860LLaR7nudruckkiRk5nKmef5KoMJDi/IEpJByjq6pYRTGylTcExjNu6FEApMezKffBxRXfrRSqZPyxierHMDYfc84kUu+6gaMItL2o7So4QzaQlQqKIG+VuZhV5yiLIj5R8xd5QvWTcWEY48RtE3SB+rVLXT9iTt3clnpKC01jlXERSaZWWTHWUvYrhIBIjY6XRarZYx2Zp5UslWaxBZ1GWuen1XnkbPR6XeCwqLxxyxl6Fhc8qzEc22CcZUDCHfs3x7GWTkMxCK3Wg4CwsLRVE0W61Ou90tisLsIAqkS+N4zG5k4SSg3ZoXBHATnKFi1pyRu7nHIyK+AZSkxrVFXOHUx1IUcapModvY2moIALV6rZbX6vVaQwRy4+9poafAS+cRyCBHNtDMh47oikLroHw6jRFFq2equ9Z6YmLiiSeeeOyxxw4cODAyMrJixYrR0dGRkZF6vb506dJF+G+REDXrT/WVKM0yv4cZDh061G639+/fPz09vWfPnunp6Y0bN65fv/7II49ctmyZCpd2pimRRCVZwBRVnuetVmvv3n0PPfLIE7v3HTw0tWHV6IqRJcuGBwcH+gfqtSUD/aBLh9dEV6bob8V9DE4IAKoWlkUvLCYfDP4kDyMWmmZmZotZfWBh4cDk9K6DU+2S1q1auenIjUdu3LBixQq2MwZfJop8f4EossqiJ9G7tQMr0W0ZS2XbLcuGRAfo4MGDd9999z333PPqV7/6pJNO2rhxo5xGUy2Xqu5UpQqxOI4Xf6DX3cqvyKobqaogfD8/8MADd9xxx7XXXvvCF77wuOOOW7p0aeUnIh3DBGmbJ6KHduz49U3/s1iYPv2Vzz/qyHXjK8cACFB5VFVLj4FqvosQj+5D1QGIt+RBGgmEz6dfhPCVJHVuLi8QAVC7Uzz02K6bb99+6Q33vvJFJx13zNFmvbCRW+a2pInElbZ+/BjbIRiBwdC3fN+m1EWRahQcKZ8+/PDDN95448te9rLXv/71xkCYqpJBfg+fI4moSm14emRfmQuiHpipegtF37TZbF522WV33XXXySefvHHjRpYvx5/qGCh6Y61W6+bf3Xr/ffe895Tjn/eszUBmAaUGLaZQEAk+pAA8BIAY6BLofKwCADg/Z+brhpspxrP9S05v8d90rtEi/MvvRsjnZPo/5DQgBOskGefmFr517U23PL7w8pe8cN3atdyFMK9Vmhkqj2WP3IpUTk5aHByyqPgUHKq2b99+7733vve97920aZPxTTE9PdNutzvdTjh/lVwmuQTAS8V93wBATpgEv5irKogbZiWi3KGBhF3CpsHNBOazwIhF4sRlXxnQK1SIeZbX6rXBJUvM0HetVrvzzju/+tWvvvjFL960aZNklLTplOanZrN5/a9vHGzuOec/P3+gnnd1qToLOLMnm98L7QPYnYFiAagA3ZbiqmJiFKCXT4bHqAyqANAdKJMsABVe5zYBwfuH5ncJwE3N9QoMANgdRAMdSNVBZaAaVB+h+pgeXFUOrsa8Vs/VLdsf+9LPH3nZyS/ZsnkTC6eyKZNclqJUtqh47bXXphiNHopCFKNS6v7773/ggQfe9773LV26tCzL6ZmZudk543E/VVnsNK24chvqsKJhbMrlGMlkYK/OKDEj3mbe+o0znqeJAMxcXwByDnEoqGkMZDsl2HriM55K/dohX1LUaXeUwtFlywYGBvI8f/zxx7/4xS9u27bN+rh3wpFCk6ftdvvXN/1u2dxDHzjtOACiolObfCibuQ+wBqAs+Ay3WRjz1EEDmipu9GyNkNITYoJa1mqUwLEnVKHwuItOEtx8sHwc0N0tEg8AAGmAEnRBqlYsfWYxuKZeyx7aNfHZXxx46UtftnHjBhI2CUhaNpGJYMAc3XQDq7e89a1vBVE5lPAtnElniT1CrVbbu3fvb37zm/e85z3Lli1rt9v79u/vFkW93vDkhJDogJJOAKKSCfkFXRTyOFLvTb5tHQUgiByfGkfIKX4rpgOzaBjD8o88zrJMqWx2bm6huVCv1YaHh4888sgf/OAHa9euNY7B0+DWJeiyLO+5977mY3f91bYV1F2AuQN9E39QnUnI+kDlgMrzIqMqmC9f2dIbyFZcdq94ITr4AoAS0WMAa8a0vMWQtUKqQjAwT4t6hQCoQOUIkC3sVfMTLa3GBvCIgYXv3bZv/fga49IkbB+9xDR7EnIHhQulCNnb3vY2qepxg7hI4IcRsdPp/PrXv/6TP/mTLVu2tNvt/QcO1OuNLMtY4QqaQVHlY2lHf0UxYIhmtESD7jdOEqKd3yz0CStl8l2UalizA0gJXRsqkA0AlGdZWer5ublarWYc127fvn39+vWZ27wmpRml1P79+3/8P2781Iu7dWpD81B/axciAGaBeDyYKEawqMop2iseY/FaaCqPUVtKjN2Qv0EWmtO4mZshRTAEx565wzYZM6XbqjXV6hSrl8DsvifumenfsG4tS8xLXbAM45sPpGNlO5eDQnstqxN8Gl2RB1mWPfroo0qpZz/72c1mc2p6utHXhxg553OwNtXVCs9RNHL+ObO+5CzijOQJTC/Fex0WPTnh9Mh6DCJuB52+J0Ae4jlAsxd/pGYkUPY3syzrdPXU1NTg4OALXvCCG264YWpqasOGDZUiBYCiKO558OGz1u0eLFUxQ8MNQpVBELHJMHkfRCmajVJBlN6vuOsfQl8YQSWQFUlc8VTDqo4g4xTcJI8dSZsbKJ4nAsAcurXmvpbOXndU+f5f3bZ/65b169a6krXAw2Sqkxa7VZGwQRmNIA8Ualczes0KCCWGnU7ngQce2LZtW7vdbjabRnMhYd5kIdpsmQJ2igELgxU+j2nXzyDShAoDF8TssBxs2sFdclXTfZgsiJ2I5ZUQ03ZbNFciPobF0czX6vXa/Ny8GXbZtm3b9u3bly9fLo1KIMZ7D01NPbpzx4eOb3bbqq+Wqbzflr1XtMgjyQJGQHORvrshcurxTNKd8RxjxE6mLATa5a+vPBKvi6scVurBdfSibOTQWWiiwjesefTWHY8sHxs1X2AFuHLTILY6y6kTduIDL6+PyFwGyfkyzM/P79y5c+3ate12u9Vq9/X1AZsMuLStcAO7oMtQVGjyir8T8KmLVMRRFXw3hYXPcdjkEEg0azKzc0SxBWh2Bcf1TGSTgIA0DQwMTE9Pt9vtzZs3P/TQQ7Ozs2aZBruYYJ1v1559Lxs8WM8zIOrv7wfg/p+y/TZvjlCACCqyPEBwimKcT2Q8Vpft3YTRveFCRhvBmZtNbvckJTuZuKYwIHKPe1a+ucoRAjTyrCjphHX1R5/Y1el0pBuDLMvq9br0bVCv180CKLNE1Wxkw6HRaAR70KpkYheIaiG53NC+cUZmik1lSpoAAHp6vbYkaokArfoh3FAFPE1AmrTSChWRUY6RuZmIkJ2pkS88Csg4rBIBtEFu71fNxx7f8k7A1V4+AJ12GxBXrFg+PT3daDQMI7AYTQO6b2LimIFp0pBnCrIctAZUtuCtrsz13YoSkMR1DpIXOR0SZBA/IE0lMpJo9BG56FxtcRJilhIxJ91E4O+GvALa0zlYGNQyoA6M9mfFwZ1aU5/RWsFqFzzrH0RvpBK0JuRiubx/oZfKIfs3WZbNzc2tXr262+22Wq0lQ0Nc9oGvJ+llmbEMfvAVnPpG3pyZYNphUJwZ/Dh9kHyJGJZl3AKIPx7UQOS3kgdf+AkxQ/oTdhZDCXWLIsuyVatWA8CqVat47hfTQafTWWh3N4xorbFezy0xyxaLtMu40TtRaNImiWRBWalXVKbNCNTjOGwgGbu9gteIQv2BqRcguO6BLlRnyQyisiGaXSnwmMbE9Ozs8uVjvB0eERl/zdCDWCHEOiLmvTbKTt+PuuqIOD09PTo6agC9bHTMk1nqwsyMVnGWhNt3ALunGnf8GNP2baMWaiIzKiQm9Bt4WkOIVGqCsnAqBkjdWWtp0wjVDAlZycj8QK9Qq9UW5udMKzk5OTk3NxdpeAbQk4cmh0dLTbnKcgEyp/4afEesbCpvJVWz3oxQkTbbO7SycFcq0UvB8Io3fZB4gImWgZsg2IvN/TIrW+4hEGvGEQkBNMHmwYWpZsuUhVzQBKKA+LQXpr3KQVXVXcI6AjQRtdvtPM+73S4RgByrYhSwCcLABqGXBmL7dCGmzZdNBTC9BE2QOSQ7+doIIMwekaB2R8lZpnTXdP94B2bgj0VoJl9OAVf3CkRUq9XMpgp5nhu9WbaeRoytVovaC0ZeSjk7HUQ0jAIBrIRIHKMlco+hMHlslOC7GLxdFUT/ReronpiZjG2GOeeOqt29SBXhY4QE+l4JHazDE/ML4PBaLWX7Qd/kRjY6P/UuHaRNqV4+YKyARk0EC0eSheAObbYQ/EZgAH47wHCPMLQF61RqA+c8z353yy1Llgw+61nP0qRVqA07kkb3PPcZmY4JEebn53/0ox+99nWvy7Nc+w2VExiTvyrPDydkWVa67VBbrZb03c1DuIhqSaaVQlsJUQFq3xLZb/pdLhxba39qH1AhemThVV0kW4qepy1Thj1Ac+TLkHEcdQcFvoPjStoGf1DJm0AEkGfYareMlLJwC3ojQyV8Qrt21i/dNc/kPJXex/5ka1XkkGOtVtNipbSXkTnyNul4yxLpfVVs2MMfdt6KEWpZ/vvf3/qed78bAC6/4opjjjlW61KbLqEQjhebV58tMSuFCwvNz3z601dcccVjOx/7y/efzThl/Zn5uBLPFaGqfUdEYyQyzhpBLEvz64CAsNsBXQJmqBQgAqlYS/bY5YMMiIS+If+5HlI1VYenaQ8S+QjEACEjXrKvTpRpecrC45YkVDbAjhKkmEYEXVKeUbPVNi7RUAxdV8ieR9Dc/m5eh+Yn5EGvWGR0psDMnH32JWqpjix2TVMPshcIYuMpydasgRC79EFCyPP89tt+/853vGPlypVE+o1veMP3vv+Do48+2u4rDu4LluE8FzjKIERotzt//7GPXXXVD8fHx7/xja83W82/Pu+/oXZ7OCdAXlxRBv5Epc4KQG5euFy/zSqH1rq/kaPKiZyFlc1kFrIYxs740E6xI9tltFBWAkMmQnnWI5WuXFwCwGOaO4gemRTQbUrSUU8xsG+AOF5MrAosDRvLhkQtn0LYqSPn6YVP/c6QcqFLJaCji6YC1Wo1Q4aoEEGh1YYtKFDbzbtct5xlEigeJGZb0YgAACAASURBVDb5sNYLIELIVHbv9nvefuaZq1evNl9ftWrVn/+X/3zNtdceecSRRNpp0xaM3PSYjxoDRlmWH/vo3xk0A8D4+Ph3v/OdTrvz0b//WLfTrVA2FhV6ECIiBECFJGz50gkBuB1utNbdbscpFVz2TIooouZbRn4ZkHYMR5bwSAMSaKZqrt6cSGcPQe7lmBicsmEAZwtXGrwZstoVmxGQDoDrL7rPpfCNWVl04hGtyF07JncrlYGnnUXmChIWCyLK0+W1QZFxryi0BgBAURTGDG6W8WQqAyjBj+UREroenOBSZmwjBz8CCGB3g3f7ghForTdt3vzGN73x8ssuN3DMsmzVqlWnvepVP7rmx5u3bNZEyjd4ttZwJxAQdKn/9iN/e+WVV5rXAaDdagHAGWeeURal5OMnUTB6BGNgsZxm2yjbBazVav39/ayeGQmYkYKsLEB3wa4VMhIRrbMfKJEkDaEGwv8QSEMGQBoILdoq66Tvz4naYnmGO6Y2V/Z5iVffKQw7iP4U3Kk7iD4tzv1NZ0lgAERoTjtyUqSYuNTxG2+mSxH5NK0xpk74IXWALFPATbbHLgGZXSrdTuXBXQByxioEq3aIzeWJKM9r55z7V3le+/allzKmx8bGXnPaq6++5pqjtm7VmpQKmICzV3S7n/zkJ3/wg+8zmpvN5qFDh/79iu+t37Ch6BaRlnG4wWIYUQIaAc1IrBtVLcvSLFSWr5qBQ+0R5fjPNlDgbjDChA1ETvCwdUA7nubxZATQoMgqxx5bStQH9yGl7LQ+PrD/0FUPrgaiw1+ISc9e3yA4HBlKqvbHdpAMSJvZcfw4EfGSQWmko8RmB47CY0cz8jnZeQxTZSsHOj+ZSmVKZfwwecy65j/gQnfBQc+2vQ7d9itAAKi1rtfrf3n22Yh46SWXGGg2Go2lS5e+9rTTrvnxtUcddRR5Dc8UAQFgt9v9zGc+851vf9ujeWHh0NTU5VdcsWXL1m63y4k9LCgLGg5B7KeQIJiF08Fi/bTd8xIhx4Lhh3x6/NIT0WPzXC61Ee0suxqUum/X7PdunejLe3bruSBtncFwqp0VpCFmm2hzZaZVnv9nG0CzHTrpj0KqYPS4HjOx1EorgsQhVTkQNGLPo3P36Sd3yqEDNzzshTECrwR0DG5WDTypCsJ2W0KS1tRo9L3vL/+SNH3725anBwYGim73vf/He7516aUb1m9w76LZQ5ZIX3TRVy/+5je9ptFuH5qauvzfr9iyZavZWXrxDooNFq5YcWDExJNaEQAwU5lZKmPEzbPGSfigcJTDWfatr8s1OF0CqvqIbs6nsRKRBgRrJzG0inCoSR/94SQMxvarJLjKLJLgv+J+pDRgvnP+n61zGkiEY5PMyoUF4BR3iJ+3snC8CwhiqSUA8Eb27klPu7LLCM6DgHc0g6H7EknPvZDNWjlYlcPTsyBrf02QkwgS3czZFMBal2Wj3njf2Wfv3r37+ut/aWA6PDJy4MCB09/y5ssvv2LDhvVWRpqI6F++8pV/+MIX1qxZY9JZFMXExMS3Lrlky5YthXOlsEhA9OgN0Yyu54YSx8zfyjmDNJ8wIja9FP5op+uqk4EjsBHaFlnYL8QAYeA6Geg0XcwsLm23TwGa8Ro1PvxkDB0D9snD7vnM0jN36ViYzOUVZhXxITlc4YMxDuiAHsIuoHs7ZmUQsgXjaCZ6LsJ0ZWCTigB05hVjV9EDOMszCec0gGy3rb5YauprNM7/5Cfff/bU7bffZjA9NjY2OTl58ktefPMtt6xbu9YI4J//6Z8uvPDCNWvWmPSXZbl///5//drXjj32uG7R7algoM+UA6+3EwWahcWS7KjYX5Upux2EWyMkO+CGs43bITOQL1QOp6rKohZaZkzS/DAbJRCtrVoBqCzF1P+6INDc435yRSgTFWziYaGqJBvGFCkqgYkDAKyVg3uODFP5chqvfFJrTQBKZZRZALrlgfIPJJiOVGkb7DRVZaIVyCYqqBxYMvDlr3zlHe848/777jeYHh0dnZ2dfcHzn/+HP9y5dt3az19wgUSzLst9+/Zd9LWvnXTSczudTixJJl65RqdCx5BU7FpW5FqPYGejQKYyzgarHORaObtoLXfzN1z2K8jYStCZHRjBfp40OpUDAQG0sPqhne2k//dBGpPVAxErW3NV1VvywAWnkAceeyUUJWT5LlT1UixDyxskXBejW5AoY+HHmKHRqhyZS1zA096IYJFpLlklpJK2zQRlv4+NnRVHZVHWG/Wvf/0bH/rQubfcfIvB9NDQEBH91zf8+Zvf8pYLL7yQ9Wat9d59+/71a//3SSedJNFsgRtth4ZgdkvwmkXc7vFMFCbpSCSQZYq4vooZNua3KIosy4qiNCscbX/OtrNox00A3CQNEJhwNKxNRxCslkI2VcExZqXWAHrvnl6Ob4R+bOOn+BZXnDiwicNBGPnpHh0+vtNT0zMo0gDaLGWVA9qsEvOko6hg5HVjxo7NItDDX1t0JSBb8eGgURAnZHRj8rZGB2n/YKp9aAFore0Ksr7+/gsu+MyHzj3njjvusPr08PDBiYmPf/zjjOayLPft2/ePX/qSQbPl4WAzcalasOIcZNcdVbaBkVQQTTPlVkKYuedc58kpIWYlvGFnS8++K+YYmicegRuDYBAHzIfuJQFr0seNDzzwuRNQMWGje1GDLkF3oSwcWSrI65DVAQHKAnQJVILWELOrDaUm0G7SdtAF7N0cSDSn1M7PEBBpjBrxxKNaVEIo/O2aK7kZmIkKSrI1X0wfU8IhvvRiajg7bFSCcvA49wpJ+Ov5W6oifvXvihUrLvzCP/y38/761ltvZVteiuaTT36p1rrRqCuzBWvEySDJuAK2to2XmXY30oAAZsqRM2Uqsz0KZwqtDp2jqdMG0D10Sv/L9McTowP6RP+Sw/RwHw731z3KrSrCU0M1lF0oOlB2AQAa/ZD3QdGGUkMZMTN/W1zU5Mv2cCxFUnK9VA6wojB6GfeqIXEFynqBiBglLCsmJ8kQRRckgsi0DgFDiy9JYcT5do9VaFI2e74CEBv6BMS11iMjI1+96KLzzz//Fz/72cjSpTLN0zMz//Zv33zRi1+kxT4YUfUOM8X9vYpg8NezD+SeArAzkEzgvVDlQ0qpervtZmgZUOtQCqG00JAuWJ6ORRYGClPIGjZrLPZXgVKQ94OqQdECDdCah6Id5dmBTzYglfnuYac7fA0enSRIG8cZEUlDynciqNDXnBe3nJUXVQJKUhypHFbDjbzuhVQTZaEqY4L+WF8lAmPH9W2XxTcCrF+//lnPetbVV10lAV2W5fiaNcefcPzQ4GDxFF0D25w+eXmQbd/R1T9AQJCrkbvd7vz8fLRYSCk1Nz9f6pLbICDHwS4FUYJseuTsURTC5cQEaQMZYxAhoxwzUDnUBqBoAmaQ9wGVfogbmO+rtGF/pYekKlqd2BNL+jgBNlut6elpydDiU4FHetawWcKGUvNutwthbYhiiU4l+XMotdVvK2FQGXOkhFTqJFxlos/x0qmLv3nxBRd8iu3NJtRqtV27dr319NO//o1vrFy5kmxD5gXhO3dCNKYao3KOF1Qofu4Ghd3iqDuvhNtwvmIO5AJkpz2Ds3JUooI843oQe9u8RRsGnTsAEN0187+cb4RucDsD4zihaEFZAmrI6lAfsOq7LgFK0OEYpAF6wMeu5kS10av7PRJGYrjeas/G2FU26nXjo6dCHMLcwVekE3sTcjMjTL7jv5/qlILbJaObTlspGTrCaxh5lQEkVqYjHIv9j8uy1AB08cUXf0FY6IioLEvTxI+Njd13333bXvayn1z307GxMQBQxkmgsr1AhTYzEMJaGDJQMgo6KoqdOvJcV7L+yxi3eZ6zrIi8NgJcA1iB5ooRkBjGlIbgF05KjMavIGQISoWARlDKAtocaA1lB7CAHAERqANFF/IG5HVQfYBmOoe2nG1pm4AIuiUXIQSFzPMH3cwRmXJKc4QQwACASrOWWzJCRKChROK7RJSz3wM53hh1LeX7HAVPjzRQLnWpSw1ytlSgB7tLEGMXAhDLtIEz3zGUraecLMsuv+yyL0QWur17N23adPDAgcGhIQBYtWrV1NTUyS958a9/c+OSwUEAYL9mGOws7m35Yr6GR4e8AiHQLZSFcLRZqUiO751nCS4MpVSe5YiKXMfXg9KSvThOG2nfbgS1zV9EAIW3PDT7gi8/vmVMgc8CBVZtPyNKaALEVxQgACIoOT8JAOChB7t0yfFQRnP6omNOoEeC+wr5U3SNjEJX7KrZah06dCjCrhJO6oxU5dZYDBor3oGBAY+gpB7I04jztXdgY1UA9gdQqT/4g2Sohaw6CeHm3X7xHwdEbDQa37/iis9+9jMRmr960UXHHnvc61/32snJydHRUQBYunRpWRR/8d73/tOX/3lkZKTb7YKRi4C1aHTc/1HfMWRtB6EAx3zA6WReiGRblqVZowXacnvY1xRj2uTszaJnEZAcBp4bfK1ARYAw2Tp4OJv2pnrtk3QemqByP0mVeTqY/goBvoNIRQUDt9DLS4CU2BkjUhDQmZx1smOifZkI5C5YEY65rYTe5cd+a3RZal16JzciroSGxWFKyQ7KYkiFeIaJsez+8AdXnn/++RGav/yVr2zb9vL5hflLLv32Bz5w9s5Hdy5fvhwAxpYvv/vuuz7y4b/5Pz/1qWXLlpW61CXpsmRXpcqt9LFCU9IazRQcQBwAef06urnciN5gZ/LArQFn0pmMuEdHdpZn1BCboBymeyJYQFnWDaXMCNHAk862e+phCgCyDEi5SVFODzFM7/EtjsFBHMGDXmrYiK7ovcrh8uc1ChSjhiS2holSmDebzegS9t7GDxKIS36Wi6glfMVpqlqAgDHxWLclfLBGwzwzTnRqV1555Uc/+nfcCzRo/tevfe0Vr3jF3Px8WZYrVq744he/9FcfOnfHjh0G0+Pj4zfd9NtPfPzvP/6J80dGRqxmpYmQtCbE0iggFtZc+VEi2/N1ZPhzjY2FODlAm+aLF8mawCVhNHJbbChXpMYlER87Pb/CHudhrapj+18TELQ27YBVGFi3JnAuCkAQs9AxgMTQvci7uUIEujROkqJPMvNFJIuCzk1QSuVm12UQZZWivjKYfg8zaqlL1ylMwey6Qka1CA6kQ1utCXikDRCUm4CZ5Vmj3vjlL37xtx/5yOrVq9H1Svfu3fv1b3zjFa94RbPZJCIELMty5cqVn7/wC+ee88Fdu3YNDw8DwPj4+A033PDlf/6nD55zbv9AP89yMMRBWBJgqRGxFA6pFYSz7dypFxU4N33MHTy7n4iKojAuDQI4WHXC/Qsa3EA3D4Ud6RtuBqk9Cx2S/+8GdFkAobVnozsAJmxwYBXgtrcElJmwkQCRbP0ujaIsDRVy0JqH1aQpiYdKDFl4sx0mY4HVGRIKDUfNzsUTdvbU7EFsrVUBlJ2eYSufctqAcVTdaNR/df31f/EX7121apVym1Pt3bv3S1/60qmnntpcaBqDoUk7Y/o1p726Ua83+voAYHx8/Pvf/z4gnnPOuX19fZq0XUGDbtsFIiIkKEGj52rl1WuQ4AbXi/TEgYaguUJiOLFGyIXbaSLiHqGDC4QHFXAP+dheEVSN2NUAMLt7d39YMTCIp0J9PpzQBipBm1qkhTM+82nl2ZrpOVajI9AjIJr+hFU7ypJxBUJl1WL+vTRUk+sOmls5P8e305KQgSlc6g2261Y6hrY3pKbBUDYzc2JFQ7YjrNtmSmVZVm80fnX99e9+97tXrVrF+8rs2bPn8xde+OdveEO73bYOkFwERiirV6++8odX/dnrX7dixQrTio2Pj3//e9/rdjof/shHanmNjKGNlQZDI2hbEhuZjnbAAA9rYljbNWOIYDQvY5mR0mM6cXIm0GRxiFU4E30W+xvwMVVD2TC0hhdtXda9+E+9dmt7b8YApwEItBZjKCj0WgqBLnuIDrhFF0ABaotpYp52D1jn004JIYddi3L5FTchxApdS0CD6HhI7DJGUkwiolVZKjWN6GLE4lprNhkagtZuUovs8nkgOzuc0JqJKxLToUJlbMZKqSxT9Xrj17++4V1nncULvy2aP//5M844o9lsEavu3P8AAICyLNevX3/1j6557WtOW7F8ea1eB4Dx8fGrr756vrlwwQWfQURDkWYgmpfr2uSbv8bVAHqyZsbWAArQyILMFcLMGOSBwE0olRPu/NQXJwEgFKZlkXpz7NElUQtutwrWvx3awPbSECHPUopEALKODxDdMkGpwaPHmYWdsnG6JshIFozPZEVACoA8jikaxAFhke7B1kblsJfNkvguN3EYepzhLSVqtZo5gGSHIe8AAZLAgOOSpGR+km0AlFU6pKLMmkY81ciB2wEZFCqhMaP5P1Mqr9W2b7/n7WeeyaMnALBnz54LL7zw7e94x8LCAlluFhUDeHYlFEUxPj5+1dU/et1rXzM2Osq6xy9+9vPPDn367z720W63sIvUnQHBKiG2mC23GIaTyAYEhViy5CxDY1l6I6Nx/8pcot0+9d1ugbUaoDIDcZafGLUBcDEANITIQ/kMeoXV9Vee5Nd34Blg0sO++yh3uTxrmAl3CjR38tD6BjH1xDU9djYVOgcJAT1ztAiIbrG+39SYYSr3emOrUbvdlvjkY887IPCWBqMum4aAN7Mweszs7CwB6NK4PvR2WO2GQowqYv7nAGQUZeTBDmPHyDK7t4s5RMCjjz7mgx/84J49e0y6d+/e/Ynzz3/nWWe1Wi1rVxG5cgXtq1xRFGvXrv33K743MTnZajUBYH5uDgDOePuZZVGCq1hc0xyobbNiSNrWR/OY6TmU2v3YjJFV7Hx/hWXF+4DYA10qYyHWPKihhDLKvqIZGSo+ZRDzRSL/z/s30hU4di2PwLEInjqlmTl50qguWtvppkRApZsKou0tf+ymiBj9CkV2eMG5lXM3zzPj/lm6gmb/0IahTXlJ2crg3RjI1l8nLsOiZ7jS2MIjq3NIgBhsWMxxFUdUTGx+myseDAoOlMI8r537oQ/V6/XPfe5zAPDpT3/6Xe9+d6vZ1KL/Ba7EoGoCTFEUmzZt+u5ll7/5TW8EODQ8PPTDq65et3ZdURaBshErHoKtgZtdsIPU5rsICNatntGrnRCIhS4lZi9q3Sm01iUoRcQ6MQi9glUN1qcjTVr0CMkpFlbXY4aOnA2E4yCVAXveqXjA69/K+GNxKVeCpMHxN3rdBlkVcZHw+DSVtbzGzuWkZmy+ySMSRIGcQdBxHr0m1Y9IFUnVkr6+vvn5eSLqFoVmgxWw0uw1aFcKpvTFhoMqwLSZtewwbfWnPM8/8MEPFmU5Njb2rne/iwfbhB7joOxyEMGoKIqtW7d+57uX/e1H/uYL//DFtWvX2oWrdm+LUF+l0O+ei5p9AZMHk5Uky0pr3e10TJto2EW2iaZ1Uqg6kGldgsq19p8NDRoCsk527pZ40qPZIdVSr0QzeEyjmc2c9ANl8BUq8aFRweimQUBABFKgAEA7BR3tW74XyzUQ2b5hfrXWGVG3ACJaWFjQYtKv77g4FRfcvMUwIWLTIG61IxyAAHFUV8BpOa1Wi4iKbmHJSXQAHak5CxdY1ZO7WGK7QQ9i9Mj2N+r1+nnnnYeIZpyPhLmXfKEmpSJCURRbtmy5+FuX9PX1iRFNgWkgcrYLxjHD2vrAEadc6lYlJCKidqcNTskzk5O4GNCtrdCaoNFPWoOj+QS4IXEEdjoQsAi1W6cWObWYj8XyE1ZfK7UOcsAF5nu+1YvUna89v7TR8THr07z6xlwxaOYJg4AAqLXOAHQJ/f19JEYBI/WBuQPEKliRRgKAnNGcKhgyCvkMh1qt1mq1AKDdbpHdz5KsCmpy5qBsKBkQFBMzuNG5EMqMYw6ICG4xQalLVjNcK+CKAC33cC8tEr7W2jr/DXLYww+qPwWH+PiUcW91KcT5uTkz2NTpdBjQkUhVpvL+wbLsUN5XljqAbyBdaaoTGohUG7yOy+7nQPA0P8YXyeM+rfSIMXDTK9HF4EM6UDDifxCqIsyvBIRlp6ghlRoGlyxJqZPCfdf5YvSYqQDeMZ6kdxLWaL4bFQwi9vX1tdttoyy2W21kX42Ck62G6ViZD4XCIQBtroVoNlHwqDI5td2p6+CYSZZ/NaWkTZATqUBq4IndaCMVsAZJ2GD0bpyZnenv7zfp5APZBhq5jY6NFlNdROh2isTKgf4wUjAYryAZVGjGFJ4C+VPZb7aWu0SFSNEcnPIHe4CeqVoaOiJMg5OpSwQAUrdLusQMHjwI/3FkRCIthRw4WJtbZVmqyHUYCG7nF5jPI00lin18fHxqakprXa/XJyYmVqxc6diKu0ngxtrczDbxFyWUpUZtO4RiaU24C6xTaby+4RCNWLEHwGEEB1xWqcFaoRhsvCdM5PHa0zkoaLfa3W43z/Nup2PmjVRWoQ2rVz9w/8EXHDnWmp8HtRJK+wkWrfgr1WWI0ewVjwTNUieJnkk1tCiYOsb1mmm4UqpBBsW0ff9OqoSQOwVAaLU7qEtU5T10wn+q1zNVvVpKOpAxRW+OWYE0V3LGrtSkOZa4gQ5DnueHDh0yKvzBgwdWr17N/VNwxOxwCQFJiw28lTgSXUSe+IYgd6IPEC2MS6bD46rTU0OzED5JyLpNPpGLzbK1ALGgc4Xq8cceU0oVRYHOLaxs8dDNN1g6PLRrfg0Adebmy642fi49JoBhjPYz1cTMF+UVELCGANb+Xf5UjxVW8mJw/GSSDbR5ycrg9GbJ1gbWqjnfAtKdYn7Zfzi16HZ4yx8MFV3tPG0w/1IyKgLgOmnmkha7KHe7XfMrQ6fTkadFUbzwhS+cnJys1WoPP/xwWZbOWiGmHSvbA/TEa64FOoU5kiYPRLAm+bjhlqTs/5kSwejgqQWLmRgBFD4QFKpLDCrcf2D/zPQUIk5MTDznOc+RjV7UBq5eueIWdXxRtOsZ7t93yPtmNgn37bWor0EKhLYQWOKEjiHEEsbggOtbHwhu+V+2c8f5f5KAottqzSDaLugidwXcQhitpw5M1jO1/Yk9zzhqa7vdbrVa7Xa70+m0222JNHKWAD/YIebrspCVfEfunAyOqmXAIHtARMcdd9wNN9yAiHmW3bt9e57nwvOFB7C/4oFsH0BfBSzy0VlzgHe8YjudG/VgbFfIk5X3pxFSTBMFiDDFJIy65qLWevs999QbDQB48MEH165d22w22+22KSEO5kqn3T7qP/6n+/fszBXO7tvXaXf9IhGpY8jaxB/0X9YBmlPcSwVDXkwALzIb8jR/K9anq2TL6GfzVtQNZXD7VpX2H5iidktBcc2uZxy9davZPNOEvr6+gYGBJUuWDAwM9Pf3DwwMmINGo2FGW7zNwK2fKooie8tb3sK6sqSTypDmYmBgwJTZ0NDQrl1PLBsdHV02CgQexeE/p3h4+ApNI1gaJbUlsgfAUBbVDfxlZwMH8AdPM2BSbtVXAAGzLLvv3nt379pVr9f379+/YcOGrVu3Gh8GWZaZX6UUHyilxlet/NpPHz1lzSEF2eTU/OiKZcjdFaKAPmM1A5LrAs2R/UG8Kv88ZZ2sFzscLmukTiAIEOcX2vt37unL1V07H2q9/G83rlsLrudGbqg1HXD1BW+TIFRWbvJTMtaHFzqdzkte8pKbb7650+kMDw395oYbdu7cWa/XlcoYu/6f+6b9rBKPVKJZ+6kajGpXcKJs4mIOD55eSDVOU4tCDQQBVaa2b7/n4R07jM3n7rvvfsELXiCVv4gOzEGeZae89V1X3LizkWPWXnjk/p1lWXocVyjBUZdOXo/QHNk9bEIrZMKqRa/AWkegaovnFzOMCL3PNHJ2LwsCIFAwM9PctWN3X6ZmF574UeP0555wvKnzzAJ8rBYNMeleddVVRvraD78BJN1Bvk5UgZTZ2dlLL730lFNOIaKZmZl169e/bNu2Wp7aBIMOokxMcAIAcj25UJ7sqizjIoznjPjNyO28bOJNNf9IWDsOlqcA4Ba5qLm5uRtu+B/tVmtgYAAAfvazn5199tmNRkNKSWprUiB5nt98+51H/vK8P3nOUa1O2Vb5+OYjRpYNWjfjws2/tR7wqaTbFMSVF2V3La2r1XnvZfwM5SMfQbGZiz/lZxDQrPPF3XtnZvcfatSULuf+8e7Vrz7v/xoeXBKhhY8lLFmkcs6MvI4//OEPo0SS2IMs4hVV5bVRKZVl2WOPPfatb33r5S9/udnR7MCBAyec8Jx169atGR/v7+8X1mgB4sjYYWIVLYZNtINoCGhN5GaQSLQTkY7GEYX04TAKKS2zsJeJCmdnZvft37fz0UcnDh4cHh5WSnW73d/85jdnnXXW2NiYFlPRGccRT5uQ5fkNN/9u/S8+fMqJm7sldrpdHBgeXjk2PDTQ318XmigESCXw04vtcYRj90BA3omqLTXmqO8XWY0j5FYyfRo4ZgJA0CXNLbRnZ9uTB6YHcqxlqts58LnbVv7pX39+5egy7TYNWzygGP3mK/IWXnnlldGNiodCWEcPm1Ozl/0ll1xyzNFHL122DBHLsmwuLExMTpqdcuxyMUryj9Lc6kWBtoAovghBS8fxseYcviOF+pRCxStFUWitO512luVjo6N5rWbEum/fvt27d59++un9/f1mc++0HWP1Axy+DeLzWu0P99534Dvvf/uJQ4MDK7RG0rrZLYtSq7ymsgwVqkyFRLhIbqryS71vPU1JPIVgxnbLUpOmvpqqZQoVKug+uHvnd/CN/+Vt7xgc6I+0A0YXJXYIn6gemKwAdFQefKzCBYnyYRQ7xt14441333331i1bBoeGGo2GbGor1ZX/7wSZl0hDgERwpv8wMTExOTn57Gc/+/jjj6/kGIljCGXLRVir1SZnZn/78+tO2HvpSWs6S/pX9tX6CTIAZKWJm25Ev/NKyIBR3fa3lUhwFAAACcpJREFUfCD/emUFkbwMtl0ieLKqgGLUUShn/orLfUm6s9BpTs4c+smh5w6+4ozn/4dnkWhLK0fxegG6MiCiBbTURaKWOlU/5JdUuF4AAOr1+vz8/GOPPXbnnXci4szMjFKqVqv19fVlWWYcPaXQAYceaUvwdw+jKvxxPNI7WgfB+fl5RDR2N6312OgoKHXcscdu3ry5Xq9Hm4tVVglIOoisliBilucHJg/dcc/27LF7l83srM3fv0xNLqnBkhrUMlhSDzWERbPtW8FFkJvCH8SV6CA6jr7UQ+6IMLEACDDVgqkONBtbYeyZD+fLn/m8F27ZuL5Rq5VlWeHvU9AfiVHuw0Q2XnXVVUEKk1kcT/J+gnJyM8uyLOt2uwsLC91uV9YW/o2gfDgfkk12lOzKxCwihV5aAQgnUlIUnADTGR8aGlJKyeWcMs5UVeuVEplypVSW5SrL5ubnW+12tyhM1M5eCSwCVqU5HpXEb2c9OnogkeOYkq0/AmJ8knXjXakPBqSDAM6xWqzmoLurEDOl+ur1wcElucq0LiOpQlimcjTbfzRp6iPmRWc+it3dpeIOMpOgMKpD6JapmmSZ7n9ES5yBShqrTANHHmGlVzqj1KanKXfKW4snTGaQUyXHZivbNHmrMqlEVBRdLItGLe+r16KE8Ysp42DocCiqYE+aF1ai+Moi5S6POY8ys72qLtqJ+YE/2EpppKwc6WxKOAqM5JyzB9jKdPRiPhACigRNoSVFu7V0yi2ekeLji4tgulKU/DzrPJW1NspXr7lWUYnKPPKaNq21m9Acu6IyNsfKeS9S7iCQ10vaUTvLieG30gj5mbR9OByc8Re59SexC6DERvQteRHFPLZKIZNQKnq1afw641UiO/ocf1R+GhFzs+QkzXCv/C8SOB6GKaMWEc3CxugTklcqKU0+WXkrglEaCYb6OoVeHSAEPT9mjBUQSp8v9qqBKEJawQ6H9sy7veaERTGkyajMPl+XFB4BXUJEObeIUQpTCmP5mJHnXiXI12WnORIL16IUjWmu0/j5IE+rvvxNX5PgSBMta1JUgaIFduY4nWAZCUUKjq+kBclpxqQ5rpQFJc13OvjPz0QdX4npSPppccor0kxUyXbylpSkBCIkUJC5i1CYRpXKhC+mkaPbujJ9vlLIUbnIrFVel7+Mk+gtiQcp7RSBRrx5ZT4r5Z7mORWKlIW5KPdeSVOjEzcilJhvIoyaepwOZFayZiTQSKxSWLIxiR6Lkp0KND1IY4ikVHmcVsgIiMp5RIga4uijlW+lKYm4KWI0KZYoPb1ayyhEsVXWnEox8mmvDLIem6YtT1u3tFCjd3qlXqZMOlgxsz7S+sT1ksVUSbHyAVOWynk9VeHCsrTWLs7Wcl5h5cNpJYn2KY1qy+IUKIWQMl9U8CnbSaKtrDn8ZPQuu4qrRLCEO4Mh6k5EgfHUK8sQ1pnKB1L5pFcwYXGT5so4TZrzRqMhRbNI2TxpaUXtr4nHjK5VNlsQcpLRUDFpp1KUs7FMPiafWYSqJcfImFHMJ4EqWHB1itAsTytHvDhOxgF/tFKbl13MKAGc38U7oCB8vUXZiYTJcbIEZCskn4kyK1/sJXNMWpv0dS7iSA7mQIs9qyL9OxIph9gntsSTTFCUSZnbXqkHUUIyofKiFF+EFSn6Xp0k2RmPfmXOU36S0E/rj3xdCjc1g0TFzKCJhMA5kiSNoYYqD6K5KEZEptcFST2URRYVjSxKU/bRY1FBR6XPz0Slz1fkd1M6SwOnP0q8jEH+YtJcp/VKCg0RcxZT5Yf5iix4+UyUyTQPsgJF5Z2+zoiRix9ThpZflz6YozRHp8buhlWGTAj5lcteRhuJm8Eh0QBhtZTIZvVXnkbQZ9B3u10MmwjWsvjUSIwpXyIMq4xonP1I8hGA5FuphTEytoLo6fKARi8kcF6iDXajyKVAJNfIaOUxicmYSqm8Xq9H0VUCrldIG00IsS7t0HxXib3o2BAOALyrn6wGi3dBDrODAlWtJAeZJAhdDi/yJIu1VxFCAncOvXQG+QD1mN4AorxlzYQqbxWynxA1p2kNlEQWVTbOJomGjgUiX5Q0LCtwyo8yDZFI+XUOMn45hgXOdG23dTM+hFKxLt52QFh7onejYD4vZztIKUvx6WT7cqrSF6VAFx/fkhkxSlj6TJpfcu0XF6F8S3KDfKtS+2IYyUg4TgZHJMNo2C9FXpoYEDSGoQohsSK/FeGPI4zwLettdFqZ/VSMMteL8DcJdwNcE9CZxmUCKovM/AZz8KNsVH41vSVrbTojLwWutJ9TOCjFGUgFLY8rDbpp15Mf5gf4IB2LivJlUiXb1nSCR/S5FNDp85XYimIjNzyZCjnNHYQKgMmCbPQifo16AikrYRjkFX5A6jmcL5lmWSggihIdoVbWzEgg/GKE5ugT8nmtdbV/aOrR2EViSmnAXGQulCBTSkmLB+uULAhWraSkWHdkVKVE1avSg8ClBFk0UBINn5pvGbHIDFYWGIiOaZSkqCucvrjIxahKM3tFlTYtY2YEyXCcTqNDS4s7VFno0hRC2G3gK70eZhW/FwPKSPhYbkOfcnlUi3qFXPqXjhqjNEu9sppeieoihfvoQDiQkeaTr8jX+flKJSQtRRlhCmhOBoVKJL9LQk3k61prHgA3gRkhyjuI2sLvRuURiSLNF4nAaqIMvZRs3smPOS/incgGD2JgPwosopTLIKmuKeAieKSnHHk03h7FHPXB0ghNDHmaMT6uTIosOUjoWQbZBEt88F2q6o5EmYkM+JiE9HOQFHMq9F7sIgUapY2rqMw4JPUwrRtRkD1OWRi9VKYoI73wJG9FFTstTVlpIenJLJKXXpkiob5DgiWZ0+j1yGBSCWjzOqt8lHSrUHBxMPSdAj9FOUeapl7CTn6pklaljFIBRV+MVHPTS5DCZbT1ikqHfnc4MZWv9IqH5S4/Gt1d5LtR0VLYnYCEMmRiIgFKoo2uUNgVA4EPKS6pEXELEBUlOo2cj6O8VyZVIo9TzunsRUPREInkCzOOJplUyi0eWBkYGDDfkKNEaUcqTSgfRHYG7NG89hocMW9V+gZPi0FmKZLIIhWDMxUliRJFq1ckEmoYNnlS9WcJyOKsZDXGh+whVBoKeLBdEqqMRyY7ikfODUbnzzcKsoMR9WvpycwUFJoCuQJEOZXP96LqRUJlsvl1RppJSd7pdFAE6CFWWfDyeuVneISC45RY75Vo5vKowCAxC0SgjPRg2bOG3jCVRcgZTItkEWt/pRwkpqMspPZaBlll1ioDVTW45iAqOEw6pvz16MlI7DLlKToreQfC6ZDyec4+hCQlWSCNLRIUhHUszTt/6/8BADXiMwskewQAAAAASUVORK5CYII=;" vertex="1" parent="8">
                    <mxGeometry x="468" y="37" width="240" height="240" as="geometry"/>
                </mxCell>
            </root>
        </mxGraphModel>
    </diagram>
</mxfile>